%TF.GenerationSoftware,KiCad,Pcbnew,9.0.0*%
%TF.CreationDate,2025-03-03T21:57:04-05:00*%
%TF.ProjectId,Espacio inmersivo_esp 32,45737061-6369-46f2-9069-6e6d65727369,rev?*%
%TF.SameCoordinates,Original*%
%TF.FileFunction,Copper,L1,Top*%
%TF.FilePolarity,Positive*%
%FSLAX46Y46*%
G04 Gerber Fmt 4.6, Leading zero omitted, Abs format (unit mm)*
G04 Created by KiCad (PCBNEW 9.0.0) date 2025-03-03 21:57:04*
%MOMM*%
%LPD*%
G01*
G04 APERTURE LIST*
G04 Aperture macros list*
%AMRoundRect*
0 Rectangle with rounded corners*
0 $1 Rounding radius*
0 $2 $3 $4 $5 $6 $7 $8 $9 X,Y pos of 4 corners*
0 Add a 4 corners polygon primitive as box body*
4,1,4,$2,$3,$4,$5,$6,$7,$8,$9,$2,$3,0*
0 Add four circle primitives for the rounded corners*
1,1,$1+$1,$2,$3*
1,1,$1+$1,$4,$5*
1,1,$1+$1,$6,$7*
1,1,$1+$1,$8,$9*
0 Add four rect primitives between the rounded corners*
20,1,$1+$1,$2,$3,$4,$5,0*
20,1,$1+$1,$4,$5,$6,$7,0*
20,1,$1+$1,$6,$7,$8,$9,0*
20,1,$1+$1,$8,$9,$2,$3,0*%
G04 Aperture macros list end*
%TA.AperFunction,ComponentPad*%
%ADD10R,2.000000X2.000000*%
%TD*%
%TA.AperFunction,ComponentPad*%
%ADD11C,2.000000*%
%TD*%
%TA.AperFunction,ComponentPad*%
%ADD12C,1.508000*%
%TD*%
%TA.AperFunction,ComponentPad*%
%ADD13RoundRect,0.250000X0.550000X-0.550000X0.550000X0.550000X-0.550000X0.550000X-0.550000X-0.550000X0*%
%TD*%
%TA.AperFunction,ComponentPad*%
%ADD14C,1.600000*%
%TD*%
%TA.AperFunction,ComponentPad*%
%ADD15R,1.950000X1.950000*%
%TD*%
%TA.AperFunction,ComponentPad*%
%ADD16C,1.950000*%
%TD*%
%TA.AperFunction,ComponentPad*%
%ADD17R,1.700000X1.700000*%
%TD*%
%TA.AperFunction,ComponentPad*%
%ADD18O,1.700000X1.700000*%
%TD*%
%TA.AperFunction,ViaPad*%
%ADD19C,1.100000*%
%TD*%
%TA.AperFunction,ViaPad*%
%ADD20C,1.300000*%
%TD*%
%TA.AperFunction,Conductor*%
%ADD21C,0.600000*%
%TD*%
%TA.AperFunction,Conductor*%
%ADD22C,1.000000*%
%TD*%
G04 APERTURE END LIST*
D10*
%TO.P,U1,1,3V3*%
%TO.N,unconnected-(U1-3V3-Pad1)*%
X93870000Y-108480000D03*
D11*
%TO.P,U1,2,GND*%
%TO.N,GND*%
X93870000Y-105940000D03*
%TO.P,U1,3,D15*%
%TO.N,unconnected-(U1-D15-Pad3)*%
X93870000Y-103400000D03*
%TO.P,U1,4,D2*%
%TO.N,unconnected-(U1-D2-Pad4)*%
X93870000Y-100860000D03*
%TO.P,U1,5,D4*%
%TO.N,unconnected-(U1-D4-Pad5)*%
X93870000Y-98320000D03*
%TO.P,U1,6,RX2*%
%TO.N,unconnected-(U1-RX2-Pad6)*%
X93870000Y-95780000D03*
%TO.P,U1,7,TX2*%
%TO.N,unconnected-(U1-TX2-Pad7)*%
X93870000Y-93240000D03*
%TO.P,U1,8,D5*%
%TO.N,unconnected-(U1-D5-Pad8)*%
X93870000Y-90700000D03*
%TO.P,U1,9,D18*%
%TO.N,unconnected-(U1-D18-Pad9)*%
X93870000Y-88160000D03*
%TO.P,U1,10,D19*%
%TO.N,unconnected-(U1-D19-Pad10)*%
X93870000Y-85620000D03*
%TO.P,U1,11,D21*%
%TO.N,unconnected-(U1-D21-Pad11)*%
X93870000Y-83080000D03*
%TO.P,U1,12,RX0*%
%TO.N,unconnected-(U1-RX0-Pad12)*%
X93870000Y-80540000D03*
%TO.P,U1,13,TX0*%
%TO.N,unconnected-(U1-TX0-Pad13)*%
X93870000Y-78000000D03*
%TO.P,U1,14,D22*%
%TO.N,unconnected-(U1-D22-Pad14)*%
X93870000Y-75460000D03*
%TO.P,U1,15,D23*%
%TO.N,unconnected-(U1-D23-Pad15)*%
X93870000Y-72920000D03*
%TO.P,U1,16,EN*%
%TO.N,unconnected-(U1-EN-Pad16)*%
X68470000Y-72920000D03*
%TO.P,U1,17,VP*%
%TO.N,unconnected-(U1-VP-Pad17)*%
X68470000Y-75460000D03*
%TO.P,U1,18,VN*%
%TO.N,unconnected-(U1-VN-Pad18)*%
X68470000Y-78000000D03*
%TO.P,U1,19,D34*%
%TO.N,unconnected-(U1-D34-Pad19)*%
X68470000Y-80540000D03*
%TO.P,U1,20,D35*%
%TO.N,unconnected-(U1-D35-Pad20)*%
X68470000Y-83080000D03*
%TO.P,U1,21,D32*%
%TO.N,unconnected-(U1-D32-Pad21)*%
X68470000Y-85620000D03*
%TO.P,U1,22,D33*%
%TO.N,unconnected-(U1-D33-Pad22)*%
X68470000Y-88160000D03*
%TO.P,U1,23,D25*%
%TO.N,unconnected-(U1-D25-Pad23)*%
X68470000Y-90700000D03*
%TO.P,U1,24,D26*%
%TO.N,/2 A*%
X68470000Y-93240000D03*
%TO.P,U1,25,D27*%
%TO.N,/1 A*%
X68470000Y-95780000D03*
%TO.P,U1,26,D14*%
%TO.N,/ENA 1\u002C2*%
X68470000Y-98320000D03*
%TO.P,U1,27,D12*%
%TO.N,/echo*%
X68470000Y-100860000D03*
%TO.P,U1,28,D13*%
%TO.N,/trig*%
X68470000Y-103400000D03*
%TO.P,U1,29,GND*%
%TO.N,GND*%
X68470000Y-105940000D03*
%TO.P,U1,30,VIN*%
%TO.N,+5V*%
X68470000Y-108480000D03*
%TD*%
D12*
%TO.P,BT2,+*%
%TO.N,+BATT*%
X110650000Y-116500000D03*
%TO.P,BT2,-*%
%TO.N,GND*%
X123000000Y-116500000D03*
%TD*%
D13*
%TO.P,U2,1,EN1\u002C2*%
%TO.N,/ENA 1\u002C2*%
X62110000Y-52805000D03*
D14*
%TO.P,U2,2,1A*%
%TO.N,/1 A*%
X64650000Y-52805000D03*
%TO.P,U2,3,1Y*%
%TO.N,/pot_1y*%
X67190000Y-52805000D03*
%TO.P,U2,4,GND*%
%TO.N,GND*%
X69730000Y-52805000D03*
%TO.P,U2,5,GND*%
X72270000Y-52805000D03*
%TO.P,U2,6,2Y*%
%TO.N,/pot_2y*%
X74810000Y-52805000D03*
%TO.P,U2,7,2A*%
%TO.N,/2 A*%
X77350000Y-52805000D03*
%TO.P,U2,8,VCC2*%
%TO.N,+BATT*%
X79890000Y-52805000D03*
%TO.P,U2,9,EN3\u002C4*%
%TO.N,unconnected-(U2-EN3\u002C4-Pad9)*%
X79890000Y-45185000D03*
%TO.P,U2,10,3A*%
%TO.N,unconnected-(U2-3A-Pad10)*%
X77350000Y-45185000D03*
%TO.P,U2,11,3Y*%
%TO.N,unconnected-(U2-3Y-Pad11)*%
X74810000Y-45185000D03*
%TO.P,U2,12,GND*%
%TO.N,GND*%
X72270000Y-45185000D03*
%TO.P,U2,13,GND*%
X69730000Y-45185000D03*
%TO.P,U2,14,4Y*%
%TO.N,unconnected-(U2-4Y-Pad14)*%
X67190000Y-45185000D03*
%TO.P,U2,15,4A*%
%TO.N,unconnected-(U2-4A-Pad15)*%
X64650000Y-45185000D03*
%TO.P,U2,16,VCC1*%
%TO.N,+5V*%
X62110000Y-45185000D03*
%TD*%
D15*
%TO.P,J2,1,1*%
%TO.N,/pot_1y*%
X102027500Y-41975000D03*
D16*
%TO.P,J2,2,2*%
%TO.N,/pot_2y*%
X96947500Y-41975000D03*
%TD*%
D17*
%TO.P,J1,1,Pin_1*%
%TO.N,GND*%
X55975000Y-40300000D03*
D18*
%TO.P,J1,2,Pin_2*%
%TO.N,/echo*%
X55975000Y-37760000D03*
%TO.P,J1,3,Pin_3*%
%TO.N,/trig*%
X55975000Y-35220000D03*
%TO.P,J1,4,Pin_4*%
%TO.N,+5V*%
X55975000Y-32680000D03*
%TD*%
D19*
%TO.N,GND*%
X46500000Y-56500000D03*
D20*
X108600000Y-46400000D03*
D19*
X44500000Y-85000000D03*
X53000000Y-63800000D03*
D20*
X98200000Y-106000000D03*
D19*
X85000000Y-40400000D03*
D20*
X44500000Y-73000000D03*
D19*
X85000000Y-47600000D03*
D20*
X64000000Y-63800000D03*
X60800000Y-106000000D03*
D19*
X127800000Y-46400000D03*
X118200000Y-46400000D03*
D20*
X59400000Y-63800000D03*
D19*
X54500000Y-56500000D03*
D20*
X123000000Y-122000000D03*
%TO.N,+BATT*%
X109500000Y-121000000D03*
%TD*%
D21*
%TO.N,GND*%
X118200000Y-46400000D02*
X108600000Y-46400000D01*
D22*
X44500000Y-85000000D02*
X44500000Y-73000000D01*
X98140000Y-105940000D02*
X98200000Y-106000000D01*
X59400000Y-63800000D02*
X64000000Y-63800000D01*
X68470000Y-105940000D02*
X60860000Y-105940000D01*
D21*
X127800000Y-46400000D02*
X118200000Y-46400000D01*
D22*
X60860000Y-105940000D02*
X60800000Y-106000000D01*
X123000000Y-116500000D02*
X123000000Y-122000000D01*
D21*
X85000000Y-40400000D02*
X85000000Y-47600000D01*
D22*
X93870000Y-105940000D02*
X98140000Y-105940000D01*
D21*
X46500000Y-56500000D02*
X54500000Y-56500000D01*
D22*
X59400000Y-63800000D02*
X53000000Y-63800000D01*
%TO.N,+BATT*%
X110650000Y-120350000D02*
X110500000Y-120500000D01*
X110000000Y-121000000D02*
X109500000Y-121000000D01*
X110500000Y-120500000D02*
X110000000Y-121000000D01*
X110650000Y-116500000D02*
X110650000Y-120000000D01*
%TD*%
M02*
