%TF.GenerationSoftware,KiCad,Pcbnew,9.0.0*%
%TF.CreationDate,2025-03-03T21:57:04-05:00*%
%TF.ProjectId,Espacio inmersivo_esp 32,45737061-6369-46f2-9069-6e6d65727369,rev?*%
%TF.SameCoordinates,Original*%
%TF.FileFunction,Copper,L2,Bot*%
%TF.FilePolarity,Positive*%
%FSLAX46Y46*%
G04 Gerber Fmt 4.6, Leading zero omitted, Abs format (unit mm)*
G04 Created by KiCad (PCBNEW 9.0.0) date 2025-03-03 21:57:04*
%MOMM*%
%LPD*%
G01*
G04 APERTURE LIST*
G04 Aperture macros list*
%AMRoundRect*
0 Rectangle with rounded corners*
0 $1 Rounding radius*
0 $2 $3 $4 $5 $6 $7 $8 $9 X,Y pos of 4 corners*
0 Add a 4 corners polygon primitive as box body*
4,1,4,$2,$3,$4,$5,$6,$7,$8,$9,$2,$3,0*
0 Add four circle primitives for the rounded corners*
1,1,$1+$1,$2,$3*
1,1,$1+$1,$4,$5*
1,1,$1+$1,$6,$7*
1,1,$1+$1,$8,$9*
0 Add four rect primitives between the rounded corners*
20,1,$1+$1,$2,$3,$4,$5,0*
20,1,$1+$1,$4,$5,$6,$7,0*
20,1,$1+$1,$6,$7,$8,$9,0*
20,1,$1+$1,$8,$9,$2,$3,0*%
G04 Aperture macros list end*
%TA.AperFunction,ComponentPad*%
%ADD10R,2.000000X2.000000*%
%TD*%
%TA.AperFunction,ComponentPad*%
%ADD11C,2.000000*%
%TD*%
%TA.AperFunction,ComponentPad*%
%ADD12C,1.508000*%
%TD*%
%TA.AperFunction,ComponentPad*%
%ADD13RoundRect,0.250000X0.550000X-0.550000X0.550000X0.550000X-0.550000X0.550000X-0.550000X-0.550000X0*%
%TD*%
%TA.AperFunction,ComponentPad*%
%ADD14C,1.600000*%
%TD*%
%TA.AperFunction,ComponentPad*%
%ADD15R,1.950000X1.950000*%
%TD*%
%TA.AperFunction,ComponentPad*%
%ADD16C,1.950000*%
%TD*%
%TA.AperFunction,ComponentPad*%
%ADD17R,1.700000X1.700000*%
%TD*%
%TA.AperFunction,ComponentPad*%
%ADD18O,1.700000X1.700000*%
%TD*%
%TA.AperFunction,ViaPad*%
%ADD19C,1.100000*%
%TD*%
%TA.AperFunction,ViaPad*%
%ADD20C,1.300000*%
%TD*%
%TA.AperFunction,Conductor*%
%ADD21C,1.000000*%
%TD*%
%TA.AperFunction,Conductor*%
%ADD22C,0.600000*%
%TD*%
G04 APERTURE END LIST*
D10*
%TO.P,U1,1,3V3*%
%TO.N,unconnected-(U1-3V3-Pad1)*%
X93870000Y-108480000D03*
D11*
%TO.P,U1,2,GND*%
%TO.N,GND*%
X93870000Y-105940000D03*
%TO.P,U1,3,D15*%
%TO.N,unconnected-(U1-D15-Pad3)*%
X93870000Y-103400000D03*
%TO.P,U1,4,D2*%
%TO.N,unconnected-(U1-D2-Pad4)*%
X93870000Y-100860000D03*
%TO.P,U1,5,D4*%
%TO.N,unconnected-(U1-D4-Pad5)*%
X93870000Y-98320000D03*
%TO.P,U1,6,RX2*%
%TO.N,unconnected-(U1-RX2-Pad6)*%
X93870000Y-95780000D03*
%TO.P,U1,7,TX2*%
%TO.N,unconnected-(U1-TX2-Pad7)*%
X93870000Y-93240000D03*
%TO.P,U1,8,D5*%
%TO.N,unconnected-(U1-D5-Pad8)*%
X93870000Y-90700000D03*
%TO.P,U1,9,D18*%
%TO.N,unconnected-(U1-D18-Pad9)*%
X93870000Y-88160000D03*
%TO.P,U1,10,D19*%
%TO.N,unconnected-(U1-D19-Pad10)*%
X93870000Y-85620000D03*
%TO.P,U1,11,D21*%
%TO.N,unconnected-(U1-D21-Pad11)*%
X93870000Y-83080000D03*
%TO.P,U1,12,RX0*%
%TO.N,unconnected-(U1-RX0-Pad12)*%
X93870000Y-80540000D03*
%TO.P,U1,13,TX0*%
%TO.N,unconnected-(U1-TX0-Pad13)*%
X93870000Y-78000000D03*
%TO.P,U1,14,D22*%
%TO.N,unconnected-(U1-D22-Pad14)*%
X93870000Y-75460000D03*
%TO.P,U1,15,D23*%
%TO.N,unconnected-(U1-D23-Pad15)*%
X93870000Y-72920000D03*
%TO.P,U1,16,EN*%
%TO.N,unconnected-(U1-EN-Pad16)*%
X68470000Y-72920000D03*
%TO.P,U1,17,VP*%
%TO.N,unconnected-(U1-VP-Pad17)*%
X68470000Y-75460000D03*
%TO.P,U1,18,VN*%
%TO.N,unconnected-(U1-VN-Pad18)*%
X68470000Y-78000000D03*
%TO.P,U1,19,D34*%
%TO.N,unconnected-(U1-D34-Pad19)*%
X68470000Y-80540000D03*
%TO.P,U1,20,D35*%
%TO.N,unconnected-(U1-D35-Pad20)*%
X68470000Y-83080000D03*
%TO.P,U1,21,D32*%
%TO.N,unconnected-(U1-D32-Pad21)*%
X68470000Y-85620000D03*
%TO.P,U1,22,D33*%
%TO.N,unconnected-(U1-D33-Pad22)*%
X68470000Y-88160000D03*
%TO.P,U1,23,D25*%
%TO.N,unconnected-(U1-D25-Pad23)*%
X68470000Y-90700000D03*
%TO.P,U1,24,D26*%
%TO.N,/2 A*%
X68470000Y-93240000D03*
%TO.P,U1,25,D27*%
%TO.N,/1 A*%
X68470000Y-95780000D03*
%TO.P,U1,26,D14*%
%TO.N,/ENA 1\u002C2*%
X68470000Y-98320000D03*
%TO.P,U1,27,D12*%
%TO.N,/echo*%
X68470000Y-100860000D03*
%TO.P,U1,28,D13*%
%TO.N,/trig*%
X68470000Y-103400000D03*
%TO.P,U1,29,GND*%
%TO.N,GND*%
X68470000Y-105940000D03*
%TO.P,U1,30,VIN*%
%TO.N,+5V*%
X68470000Y-108480000D03*
%TD*%
D12*
%TO.P,BT2,+*%
%TO.N,+BATT*%
X110650000Y-116500000D03*
%TO.P,BT2,-*%
%TO.N,GND*%
X123000000Y-116500000D03*
%TD*%
D13*
%TO.P,U2,1,EN1\u002C2*%
%TO.N,/ENA 1\u002C2*%
X62110000Y-52805000D03*
D14*
%TO.P,U2,2,1A*%
%TO.N,/1 A*%
X64650000Y-52805000D03*
%TO.P,U2,3,1Y*%
%TO.N,/pot_1y*%
X67190000Y-52805000D03*
%TO.P,U2,4,GND*%
%TO.N,GND*%
X69730000Y-52805000D03*
%TO.P,U2,5,GND*%
X72270000Y-52805000D03*
%TO.P,U2,6,2Y*%
%TO.N,/pot_2y*%
X74810000Y-52805000D03*
%TO.P,U2,7,2A*%
%TO.N,/2 A*%
X77350000Y-52805000D03*
%TO.P,U2,8,VCC2*%
%TO.N,+BATT*%
X79890000Y-52805000D03*
%TO.P,U2,9,EN3\u002C4*%
%TO.N,unconnected-(U2-EN3\u002C4-Pad9)*%
X79890000Y-45185000D03*
%TO.P,U2,10,3A*%
%TO.N,unconnected-(U2-3A-Pad10)*%
X77350000Y-45185000D03*
%TO.P,U2,11,3Y*%
%TO.N,unconnected-(U2-3Y-Pad11)*%
X74810000Y-45185000D03*
%TO.P,U2,12,GND*%
%TO.N,GND*%
X72270000Y-45185000D03*
%TO.P,U2,13,GND*%
X69730000Y-45185000D03*
%TO.P,U2,14,4Y*%
%TO.N,unconnected-(U2-4Y-Pad14)*%
X67190000Y-45185000D03*
%TO.P,U2,15,4A*%
%TO.N,unconnected-(U2-4A-Pad15)*%
X64650000Y-45185000D03*
%TO.P,U2,16,VCC1*%
%TO.N,+5V*%
X62110000Y-45185000D03*
%TD*%
D15*
%TO.P,J2,1,1*%
%TO.N,/pot_1y*%
X102027500Y-41975000D03*
D16*
%TO.P,J2,2,2*%
%TO.N,/pot_2y*%
X96947500Y-41975000D03*
%TD*%
D17*
%TO.P,J1,1,Pin_1*%
%TO.N,GND*%
X55975000Y-40300000D03*
D18*
%TO.P,J1,2,Pin_2*%
%TO.N,/echo*%
X55975000Y-37760000D03*
%TO.P,J1,3,Pin_3*%
%TO.N,/trig*%
X55975000Y-35220000D03*
%TO.P,J1,4,Pin_4*%
%TO.N,+5V*%
X55975000Y-32680000D03*
%TD*%
D19*
%TO.N,GND*%
X46500000Y-56500000D03*
D20*
X108600000Y-46400000D03*
D19*
X44500000Y-85000000D03*
X53000000Y-63800000D03*
D20*
X98200000Y-106000000D03*
D19*
X85000000Y-40400000D03*
D20*
X44500000Y-73000000D03*
D19*
X85000000Y-47600000D03*
D20*
X64000000Y-63800000D03*
X60800000Y-106000000D03*
D19*
X127800000Y-46400000D03*
X118200000Y-46400000D03*
D20*
X59400000Y-63800000D03*
D19*
X54500000Y-56500000D03*
D20*
X123000000Y-122000000D03*
%TO.N,+BATT*%
X109500000Y-121000000D03*
%TD*%
D21*
%TO.N,GND*%
X72500000Y-52575000D02*
X72270000Y-52805000D01*
%TO.N,+BATT*%
X105500000Y-116500000D02*
X110500000Y-111500000D01*
X91200000Y-45000000D02*
X83395000Y-52805000D01*
X83395000Y-52805000D02*
X79890000Y-52805000D01*
X110500000Y-39000000D02*
X107700000Y-36200000D01*
X110500000Y-111500000D02*
X110500000Y-39000000D01*
X91200000Y-36200000D02*
X91200000Y-45000000D01*
X109500000Y-121000000D02*
X105500000Y-117000000D01*
X105500000Y-117000000D02*
X105500000Y-116500000D01*
X107700000Y-36200000D02*
X91200000Y-36200000D01*
D22*
%TO.N,/echo*%
X67990000Y-100250000D02*
X68600000Y-100860000D01*
X67750000Y-100250000D02*
X67990000Y-100250000D01*
X68500000Y-101000000D02*
X67750000Y-100250000D01*
X49500000Y-40000000D02*
X53735000Y-40000000D01*
X49500000Y-82000000D02*
X49500000Y-40000000D01*
X53735000Y-40000000D02*
X55975000Y-37760000D01*
X67750000Y-100250000D02*
X49500000Y-82000000D01*
D21*
%TO.N,+5V*%
X62397500Y-32897500D02*
X62180000Y-32680000D01*
X37500000Y-108500000D02*
X37500000Y-31000000D01*
X68500000Y-108620000D02*
X67600000Y-108620000D01*
X37620000Y-108620000D02*
X37500000Y-108500000D01*
X64040000Y-43255000D02*
X62110000Y-45185000D01*
X67600000Y-108620000D02*
X37620000Y-108620000D01*
X63795000Y-43500000D02*
X62110000Y-45185000D01*
X67600000Y-108620000D02*
X68460000Y-108620000D01*
X62180000Y-32680000D02*
X55975000Y-32680000D01*
X39500000Y-29000000D02*
X73000000Y-29000000D01*
X66920897Y-43255000D02*
X64040000Y-43255000D01*
X62110000Y-45185000D02*
X62397500Y-44897500D01*
X62397500Y-44897500D02*
X62397500Y-32897500D01*
X73000000Y-29000000D02*
X73000000Y-37175897D01*
X73000000Y-37175897D02*
X66920897Y-43255000D01*
X37500000Y-31000000D02*
X39500000Y-29000000D01*
D22*
%TO.N,/trig*%
X68600000Y-103400000D02*
X68500000Y-103500000D01*
X68500000Y-103500000D02*
X68500000Y-103540000D01*
X42000000Y-77040000D02*
X42000000Y-36940000D01*
X42000000Y-36940000D02*
X43720000Y-35220000D01*
X43720000Y-35220000D02*
X55975000Y-35220000D01*
X68500000Y-103540000D02*
X42000000Y-77040000D01*
%TO.N,/2 A*%
X90000000Y-32000000D02*
X109500000Y-32000000D01*
X70000000Y-93380000D02*
X68740000Y-93380000D01*
X122000000Y-44500000D02*
X122000000Y-112500000D01*
X70000000Y-93380000D02*
X68500000Y-93380000D01*
X86600000Y-43555000D02*
X86600000Y-35400000D01*
X122000000Y-112500000D02*
X111500000Y-123000000D01*
X111500000Y-123000000D02*
X99000000Y-123000000D01*
X99000000Y-123000000D02*
X99000000Y-117500000D01*
X77350000Y-52805000D02*
X86600000Y-43555000D01*
X74880000Y-93380000D02*
X70000000Y-93380000D01*
X68740000Y-93380000D02*
X68600000Y-93240000D01*
X109500000Y-32000000D02*
X122000000Y-44500000D01*
X99000000Y-117500000D02*
X74880000Y-93380000D01*
X86600000Y-35400000D02*
X90000000Y-32000000D01*
%TO.N,/ENA 1\u002C2*%
X56000000Y-85960000D02*
X68360000Y-98320000D01*
X62110000Y-52805000D02*
X56000000Y-58915000D01*
X68360000Y-98320000D02*
X68600000Y-98320000D01*
X56000000Y-58915000D02*
X56000000Y-85960000D01*
%TO.N,/1 A*%
X62000000Y-87500000D02*
X65000000Y-87500000D01*
X62000000Y-55455000D02*
X64650000Y-52805000D01*
X65000000Y-87500000D02*
X65000000Y-92420000D01*
X62000000Y-87500000D02*
X62000000Y-55455000D01*
X65000000Y-92420000D02*
X68500000Y-95920000D01*
X68600000Y-95780000D02*
X68600000Y-95820000D01*
X68600000Y-95820000D02*
X68500000Y-95920000D01*
D21*
%TO.N,/pot_2y*%
X91000000Y-53500000D02*
X91000000Y-51200000D01*
X91000000Y-51200000D02*
X97000000Y-51200000D01*
X97000000Y-48000000D02*
X96947500Y-47947500D01*
X74810000Y-52805000D02*
X74810000Y-56810000D01*
X85700000Y-58800000D02*
X91000000Y-53500000D01*
X74810000Y-56810000D02*
X76800000Y-58800000D01*
X96947500Y-47947500D02*
X96947500Y-41975000D01*
X76800000Y-58800000D02*
X85700000Y-58800000D01*
X97000000Y-51200000D02*
X97000000Y-48000000D01*
%TO.N,/pot_1y*%
X67190000Y-62690000D02*
X67500000Y-63000000D01*
X67190000Y-52805000D02*
X67190000Y-62690000D01*
X102000000Y-53400000D02*
X102000000Y-50500000D01*
X102027500Y-50472500D02*
X102027500Y-41975000D01*
X102000000Y-50500000D02*
X102027500Y-50472500D01*
X67500000Y-63000000D02*
X97000000Y-63000000D01*
X96972500Y-62972500D02*
X96972500Y-55027500D01*
X98600000Y-53400000D02*
X102000000Y-53400000D01*
X96972500Y-55027500D02*
X98600000Y-53400000D01*
X97000000Y-63000000D02*
X96972500Y-62972500D01*
%TD*%
%TA.AperFunction,Conductor*%
%TO.N,GND*%
G36*
X107094150Y-37720185D02*
G01*
X107114792Y-37736819D01*
X108963181Y-39585208D01*
X108996666Y-39646531D01*
X108999500Y-39672889D01*
X108999500Y-110827110D01*
X108979815Y-110894149D01*
X108963181Y-110914791D01*
X104355484Y-115522488D01*
X104216659Y-115713562D01*
X104216657Y-115713566D01*
X104212185Y-115722343D01*
X104109433Y-115924003D01*
X104036446Y-116148631D01*
X103999500Y-116381902D01*
X103999500Y-117118097D01*
X104036446Y-117351368D01*
X104109433Y-117575996D01*
X104200131Y-117754000D01*
X104216657Y-117786434D01*
X104242449Y-117821934D01*
X104355484Y-117977511D01*
X107865792Y-121487819D01*
X107899277Y-121549142D01*
X107894293Y-121618834D01*
X107852421Y-121674767D01*
X107786957Y-121699184D01*
X107778111Y-121699500D01*
X100424500Y-121699500D01*
X100357461Y-121679815D01*
X100311706Y-121627011D01*
X100300500Y-121575500D01*
X100300500Y-117397648D01*
X100268477Y-117195465D01*
X100205218Y-117000776D01*
X100124837Y-116843020D01*
X100112287Y-116818389D01*
X99991966Y-116652781D01*
X94031365Y-110692180D01*
X93997880Y-110630857D01*
X94002864Y-110561165D01*
X94044736Y-110505232D01*
X94110200Y-110480815D01*
X94119046Y-110480499D01*
X94928028Y-110480499D01*
X94928036Y-110480499D01*
X95047418Y-110469886D01*
X95243049Y-110413909D01*
X95423407Y-110319698D01*
X95581109Y-110191109D01*
X95709698Y-110033407D01*
X95803909Y-109853049D01*
X95859886Y-109657418D01*
X95870500Y-109538037D01*
X95870499Y-107421964D01*
X95859886Y-107302582D01*
X95807500Y-107119500D01*
X95803910Y-107106954D01*
X95803909Y-107106953D01*
X95803909Y-107106951D01*
X95709698Y-106926593D01*
X95635933Y-106836127D01*
X95581109Y-106768890D01*
X95423404Y-106640299D01*
X95342126Y-106597843D01*
X95291819Y-106549356D01*
X95275712Y-106481369D01*
X95281607Y-106449616D01*
X95333065Y-106291245D01*
X95370000Y-106058052D01*
X95370000Y-105821947D01*
X95333065Y-105588752D01*
X95260102Y-105364197D01*
X95152914Y-105153828D01*
X95122844Y-105112440D01*
X95099364Y-105046633D01*
X95115189Y-104978579D01*
X95147674Y-104941180D01*
X95191851Y-104907282D01*
X95191856Y-104907277D01*
X95377274Y-104721860D01*
X95377277Y-104721855D01*
X95377282Y-104721851D01*
X95536924Y-104513803D01*
X95668043Y-104286697D01*
X95768398Y-104044419D01*
X95836270Y-103791116D01*
X95870500Y-103531120D01*
X95870500Y-103268880D01*
X95836270Y-103008884D01*
X95768398Y-102755581D01*
X95768394Y-102755571D01*
X95668046Y-102513309D01*
X95668041Y-102513299D01*
X95536927Y-102286203D01*
X95536924Y-102286197D01*
X95474991Y-102205485D01*
X95449797Y-102140319D01*
X95463835Y-102071874D01*
X95474991Y-102054514D01*
X95536924Y-101973803D01*
X95668043Y-101746697D01*
X95768398Y-101504419D01*
X95836270Y-101251116D01*
X95870500Y-100991120D01*
X95870500Y-100728880D01*
X95836270Y-100468884D01*
X95768398Y-100215581D01*
X95768394Y-100215571D01*
X95668046Y-99973309D01*
X95668041Y-99973299D01*
X95536927Y-99746203D01*
X95536924Y-99746197D01*
X95474991Y-99665485D01*
X95449797Y-99600319D01*
X95463835Y-99531874D01*
X95474991Y-99514514D01*
X95536924Y-99433803D01*
X95668043Y-99206697D01*
X95768398Y-98964419D01*
X95836270Y-98711116D01*
X95870500Y-98451120D01*
X95870500Y-98188880D01*
X95836270Y-97928884D01*
X95768398Y-97675581D01*
X95720594Y-97560172D01*
X95668046Y-97433309D01*
X95668041Y-97433299D01*
X95536927Y-97206203D01*
X95536924Y-97206197D01*
X95474991Y-97125485D01*
X95449797Y-97060319D01*
X95463835Y-96991874D01*
X95474991Y-96974514D01*
X95536924Y-96893803D01*
X95668043Y-96666697D01*
X95768398Y-96424419D01*
X95836270Y-96171116D01*
X95870500Y-95911120D01*
X95870500Y-95648880D01*
X95836270Y-95388884D01*
X95768398Y-95135581D01*
X95768394Y-95135571D01*
X95668046Y-94893309D01*
X95668041Y-94893299D01*
X95613367Y-94798601D01*
X95536924Y-94666197D01*
X95474991Y-94585485D01*
X95449797Y-94520319D01*
X95463835Y-94451874D01*
X95474991Y-94434514D01*
X95536924Y-94353803D01*
X95668043Y-94126697D01*
X95768398Y-93884419D01*
X95836270Y-93631116D01*
X95870500Y-93371120D01*
X95870500Y-93108880D01*
X95836270Y-92848884D01*
X95768398Y-92595581D01*
X95682430Y-92388036D01*
X95668046Y-92353309D01*
X95668041Y-92353299D01*
X95581219Y-92202919D01*
X95536924Y-92126197D01*
X95474991Y-92045485D01*
X95449797Y-91980319D01*
X95463835Y-91911874D01*
X95474991Y-91894514D01*
X95536924Y-91813803D01*
X95668043Y-91586697D01*
X95768398Y-91344419D01*
X95836270Y-91091116D01*
X95870500Y-90831120D01*
X95870500Y-90568880D01*
X95836270Y-90308884D01*
X95768398Y-90055581D01*
X95768394Y-90055571D01*
X95668046Y-89813309D01*
X95668041Y-89813299D01*
X95536927Y-89586203D01*
X95536924Y-89586197D01*
X95474991Y-89505485D01*
X95449797Y-89440319D01*
X95463835Y-89371874D01*
X95474991Y-89354514D01*
X95536924Y-89273803D01*
X95668043Y-89046697D01*
X95768398Y-88804419D01*
X95836270Y-88551116D01*
X95870500Y-88291120D01*
X95870500Y-88028880D01*
X95836270Y-87768884D01*
X95768398Y-87515581D01*
X95768394Y-87515571D01*
X95668046Y-87273309D01*
X95668041Y-87273299D01*
X95536927Y-87046203D01*
X95536924Y-87046197D01*
X95474991Y-86965485D01*
X95449797Y-86900319D01*
X95463835Y-86831874D01*
X95474991Y-86814514D01*
X95536924Y-86733803D01*
X95668043Y-86506697D01*
X95768398Y-86264419D01*
X95836270Y-86011116D01*
X95870500Y-85751120D01*
X95870500Y-85488880D01*
X95836270Y-85228884D01*
X95768398Y-84975581D01*
X95745956Y-84921401D01*
X95668046Y-84733309D01*
X95668041Y-84733299D01*
X95543034Y-84516780D01*
X95536924Y-84506197D01*
X95474991Y-84425485D01*
X95449797Y-84360319D01*
X95463835Y-84291874D01*
X95474991Y-84274514D01*
X95536924Y-84193803D01*
X95602529Y-84080172D01*
X104254500Y-84080172D01*
X104254500Y-84299828D01*
X104262447Y-84350000D01*
X104288861Y-84516776D01*
X104356741Y-84725688D01*
X104456464Y-84921404D01*
X104585566Y-85099101D01*
X104740898Y-85254433D01*
X104886635Y-85360315D01*
X104918599Y-85383538D01*
X105114314Y-85483260D01*
X105323220Y-85551138D01*
X105540172Y-85585500D01*
X105540173Y-85585500D01*
X105759827Y-85585500D01*
X105759828Y-85585500D01*
X105976780Y-85551138D01*
X106185686Y-85483260D01*
X106381401Y-85383538D01*
X106481174Y-85311049D01*
X106559101Y-85254433D01*
X106559103Y-85254430D01*
X106559107Y-85254428D01*
X106714428Y-85099107D01*
X106714430Y-85099103D01*
X106714433Y-85099101D01*
X106804181Y-84975571D01*
X106843538Y-84921401D01*
X106943260Y-84725686D01*
X107011138Y-84516780D01*
X107045500Y-84299828D01*
X107045500Y-84080172D01*
X107011138Y-83863220D01*
X106943260Y-83654314D01*
X106843538Y-83458599D01*
X106835242Y-83447181D01*
X106714433Y-83280898D01*
X106559101Y-83125566D01*
X106381404Y-82996464D01*
X106381403Y-82996463D01*
X106381401Y-82996462D01*
X106185686Y-82896740D01*
X105976780Y-82828862D01*
X105976778Y-82828861D01*
X105976777Y-82828861D01*
X105810120Y-82802465D01*
X105759828Y-82794500D01*
X105540172Y-82794500D01*
X105489879Y-82802465D01*
X105323223Y-82828861D01*
X105114311Y-82896741D01*
X104918595Y-82996464D01*
X104740898Y-83125566D01*
X104585566Y-83280898D01*
X104456464Y-83458595D01*
X104356741Y-83654311D01*
X104288861Y-83863223D01*
X104254500Y-84080172D01*
X95602529Y-84080172D01*
X95668043Y-83966697D01*
X95768398Y-83724419D01*
X95836270Y-83471116D01*
X95870500Y-83211120D01*
X95870500Y-82948880D01*
X95836270Y-82688884D01*
X95768398Y-82435581D01*
X95768394Y-82435571D01*
X95668046Y-82193309D01*
X95668041Y-82193299D01*
X95536927Y-81966203D01*
X95536924Y-81966197D01*
X95474991Y-81885485D01*
X95449797Y-81820319D01*
X95463835Y-81751874D01*
X95474991Y-81734514D01*
X95536924Y-81653803D01*
X95668043Y-81426697D01*
X95768398Y-81184419D01*
X95836270Y-80931116D01*
X95870500Y-80671120D01*
X95870500Y-80408880D01*
X95836270Y-80148884D01*
X95768398Y-79895581D01*
X95768394Y-79895571D01*
X95668046Y-79653309D01*
X95668041Y-79653299D01*
X95536927Y-79426203D01*
X95536924Y-79426197D01*
X95474991Y-79345485D01*
X95449797Y-79280319D01*
X95463835Y-79211874D01*
X95474991Y-79194514D01*
X95536924Y-79113803D01*
X95668043Y-78886697D01*
X95768398Y-78644419D01*
X95836270Y-78391116D01*
X95870500Y-78131120D01*
X95870500Y-77868880D01*
X95836270Y-77608884D01*
X95768398Y-77355581D01*
X95680076Y-77142352D01*
X95668046Y-77113309D01*
X95668041Y-77113299D01*
X95536927Y-76886203D01*
X95536924Y-76886197D01*
X95474991Y-76805485D01*
X95449797Y-76740319D01*
X95463835Y-76671874D01*
X95474991Y-76654514D01*
X95536924Y-76573803D01*
X95668043Y-76346697D01*
X95768398Y-76104419D01*
X95836270Y-75851116D01*
X95870500Y-75591120D01*
X95870500Y-75328880D01*
X95836270Y-75068884D01*
X95768398Y-74815581D01*
X95768394Y-74815571D01*
X95668046Y-74573309D01*
X95668041Y-74573299D01*
X95536927Y-74346203D01*
X95536924Y-74346197D01*
X95474991Y-74265485D01*
X95449797Y-74200319D01*
X95463835Y-74131874D01*
X95474991Y-74114514D01*
X95536924Y-74033803D01*
X95668043Y-73806697D01*
X95768398Y-73564419D01*
X95836270Y-73311116D01*
X95870500Y-73051120D01*
X95870500Y-72788880D01*
X95836270Y-72528884D01*
X95768398Y-72275581D01*
X95679573Y-72061138D01*
X95668046Y-72033309D01*
X95668041Y-72033299D01*
X95536924Y-71806196D01*
X95377281Y-71598148D01*
X95377274Y-71598140D01*
X95191860Y-71412726D01*
X95191851Y-71412718D01*
X94983803Y-71253075D01*
X94756700Y-71121958D01*
X94756690Y-71121954D01*
X94663125Y-71083198D01*
X94592742Y-71054044D01*
X94538340Y-71010204D01*
X94516275Y-70943910D01*
X94533554Y-70876211D01*
X94564706Y-70841111D01*
X94606661Y-70808919D01*
X94606668Y-70808912D01*
X94606670Y-70808911D01*
X94768911Y-70646670D01*
X94768914Y-70646665D01*
X94768919Y-70646661D01*
X94908611Y-70464612D01*
X95023344Y-70265888D01*
X95111158Y-70053887D01*
X95170548Y-69832238D01*
X95200500Y-69604734D01*
X95200500Y-69375266D01*
X95170548Y-69147762D01*
X95111158Y-68926113D01*
X95023344Y-68714112D01*
X94908611Y-68515388D01*
X94908608Y-68515385D01*
X94908607Y-68515382D01*
X94768918Y-68333338D01*
X94768911Y-68333330D01*
X94606670Y-68171089D01*
X94606661Y-68171081D01*
X94424617Y-68031392D01*
X94225890Y-67916657D01*
X94225876Y-67916650D01*
X94013887Y-67828842D01*
X93792238Y-67769452D01*
X93754215Y-67764446D01*
X93564741Y-67739500D01*
X93564734Y-67739500D01*
X93335266Y-67739500D01*
X93335258Y-67739500D01*
X93118715Y-67768009D01*
X93107762Y-67769452D01*
X93014076Y-67794554D01*
X92886112Y-67828842D01*
X92674123Y-67916650D01*
X92674109Y-67916657D01*
X92475382Y-68031392D01*
X92293338Y-68171081D01*
X92131081Y-68333338D01*
X91991392Y-68515382D01*
X91876657Y-68714109D01*
X91876650Y-68714123D01*
X91788842Y-68926112D01*
X91743775Y-69094309D01*
X91707410Y-69153970D01*
X91644563Y-69184499D01*
X91575188Y-69176204D01*
X91521310Y-69131719D01*
X91500035Y-69065167D01*
X91500000Y-69062216D01*
X91500000Y-64624500D01*
X91519685Y-64557461D01*
X91572489Y-64511706D01*
X91624000Y-64500500D01*
X97118097Y-64500500D01*
X97247690Y-64479973D01*
X97351369Y-64463553D01*
X97575992Y-64390568D01*
X97786434Y-64283343D01*
X97977510Y-64144517D01*
X98144517Y-63977510D01*
X98283343Y-63786434D01*
X98390568Y-63575992D01*
X98463553Y-63351369D01*
X98479973Y-63247690D01*
X98500500Y-63118097D01*
X98500500Y-62881902D01*
X98474527Y-62717918D01*
X98473000Y-62698520D01*
X98473000Y-55700389D01*
X98492685Y-55633350D01*
X98509319Y-55612708D01*
X99185209Y-54936819D01*
X99246532Y-54903334D01*
X99272890Y-54900500D01*
X102118097Y-54900500D01*
X102351368Y-54863553D01*
X102575992Y-54790568D01*
X102786433Y-54683343D01*
X102977510Y-54544517D01*
X103144517Y-54377510D01*
X103283343Y-54186433D01*
X103390568Y-53975992D01*
X103463553Y-53751368D01*
X103484662Y-53618092D01*
X103500500Y-53518097D01*
X103500500Y-50773978D01*
X103502027Y-50754580D01*
X103528000Y-50590597D01*
X103528000Y-43871341D01*
X103547685Y-43804302D01*
X103573637Y-43775240D01*
X103713609Y-43661109D01*
X103842198Y-43503407D01*
X103936409Y-43323049D01*
X103992386Y-43127418D01*
X104003000Y-43008037D01*
X104002999Y-40941964D01*
X103992386Y-40822582D01*
X103936409Y-40626951D01*
X103842198Y-40446593D01*
X103746237Y-40328906D01*
X103713609Y-40288890D01*
X103555909Y-40160304D01*
X103555910Y-40160304D01*
X103555907Y-40160302D01*
X103375549Y-40066091D01*
X103375548Y-40066090D01*
X103375545Y-40066089D01*
X103258329Y-40032550D01*
X103179918Y-40010114D01*
X103179915Y-40010113D01*
X103179913Y-40010113D01*
X103113602Y-40004217D01*
X103060537Y-39999500D01*
X103060532Y-39999500D01*
X100994471Y-39999500D01*
X100994465Y-39999500D01*
X100994464Y-39999501D01*
X100982816Y-40000536D01*
X100875084Y-40010113D01*
X100679454Y-40066089D01*
X100613915Y-40100324D01*
X100499093Y-40160302D01*
X100499091Y-40160303D01*
X100499090Y-40160304D01*
X100341390Y-40288890D01*
X100212804Y-40446590D01*
X100118589Y-40626954D01*
X100062614Y-40822583D01*
X100062613Y-40822586D01*
X100052000Y-40941966D01*
X100052000Y-43008028D01*
X100052001Y-43008034D01*
X100062613Y-43127415D01*
X100118589Y-43323045D01*
X100118590Y-43323048D01*
X100118591Y-43323049D01*
X100212802Y-43503407D01*
X100216575Y-43508034D01*
X100341390Y-43661109D01*
X100409510Y-43716653D01*
X100481361Y-43775240D01*
X100520878Y-43832860D01*
X100527000Y-43871341D01*
X100527000Y-50198520D01*
X100525473Y-50217918D01*
X100499500Y-50381902D01*
X100499500Y-51775500D01*
X100479815Y-51842539D01*
X100427011Y-51888294D01*
X100375500Y-51899500D01*
X98521109Y-51899500D01*
X98454070Y-51879815D01*
X98408315Y-51827011D01*
X98398371Y-51757853D01*
X98403178Y-51737181D01*
X98436258Y-51635374D01*
X98463553Y-51551368D01*
X98479552Y-51450354D01*
X98500500Y-51318097D01*
X98500500Y-47881902D01*
X98479005Y-47746197D01*
X98463553Y-47648632D01*
X98454069Y-47619442D01*
X98448000Y-47581124D01*
X98448000Y-43306717D01*
X98467685Y-43239678D01*
X98473624Y-43231231D01*
X98553282Y-43127418D01*
X98593593Y-43074884D01*
X98723074Y-42850616D01*
X98822175Y-42611366D01*
X98889199Y-42361228D01*
X98923000Y-42104481D01*
X98923000Y-41845519D01*
X98889199Y-41588772D01*
X98822175Y-41338634D01*
X98723074Y-41099384D01*
X98721210Y-41096156D01*
X98593593Y-40875116D01*
X98435948Y-40669668D01*
X98435942Y-40669661D01*
X98252838Y-40486557D01*
X98252831Y-40486551D01*
X98047383Y-40328906D01*
X97823119Y-40199427D01*
X97823109Y-40199423D01*
X97583864Y-40100324D01*
X97437871Y-40061206D01*
X97333728Y-40033301D01*
X97333722Y-40033300D01*
X97333717Y-40033299D01*
X97076991Y-39999501D01*
X97076986Y-39999500D01*
X97076981Y-39999500D01*
X96818019Y-39999500D01*
X96818013Y-39999500D01*
X96818008Y-39999501D01*
X96561282Y-40033299D01*
X96561275Y-40033300D01*
X96561272Y-40033301D01*
X96508408Y-40047465D01*
X96311135Y-40100324D01*
X96071890Y-40199423D01*
X96071880Y-40199427D01*
X95847616Y-40328906D01*
X95642168Y-40486551D01*
X95642161Y-40486557D01*
X95459057Y-40669661D01*
X95459051Y-40669668D01*
X95301406Y-40875116D01*
X95171927Y-41099380D01*
X95171923Y-41099390D01*
X95072824Y-41338635D01*
X95005802Y-41588769D01*
X95005799Y-41588782D01*
X94972001Y-41845508D01*
X94972000Y-41845525D01*
X94972000Y-42104474D01*
X94972001Y-42104491D01*
X95005799Y-42361217D01*
X95005800Y-42361222D01*
X95005801Y-42361228D01*
X95005802Y-42361230D01*
X95072824Y-42611364D01*
X95171923Y-42850609D01*
X95171927Y-42850619D01*
X95301406Y-43074883D01*
X95421376Y-43231231D01*
X95446570Y-43296400D01*
X95447000Y-43306717D01*
X95447000Y-48065597D01*
X95483947Y-48298869D01*
X95483948Y-48298875D01*
X95493430Y-48328055D01*
X95499500Y-48366375D01*
X95499500Y-49575500D01*
X95479815Y-49642539D01*
X95427011Y-49688294D01*
X95375500Y-49699500D01*
X90881903Y-49699500D01*
X90648631Y-49736446D01*
X90424003Y-49809433D01*
X90213566Y-49916657D01*
X90104550Y-49995862D01*
X90022490Y-50055483D01*
X90022488Y-50055485D01*
X90022487Y-50055485D01*
X89855485Y-50222487D01*
X89855485Y-50222488D01*
X89855483Y-50222490D01*
X89795862Y-50304550D01*
X89716657Y-50413566D01*
X89609433Y-50624003D01*
X89536446Y-50848631D01*
X89499500Y-51081902D01*
X89499500Y-52827111D01*
X89479815Y-52894150D01*
X89463181Y-52914792D01*
X85114792Y-57263181D01*
X85053469Y-57296666D01*
X85027111Y-57299500D01*
X77472889Y-57299500D01*
X77405850Y-57279815D01*
X77385208Y-57263181D01*
X76346819Y-56224792D01*
X76313334Y-56163469D01*
X76310500Y-56137111D01*
X76310500Y-54498656D01*
X76330185Y-54431617D01*
X76382989Y-54385862D01*
X76452147Y-54375918D01*
X76496501Y-54391270D01*
X76551939Y-54423278D01*
X76551947Y-54423281D01*
X76551951Y-54423284D01*
X76770007Y-54513606D01*
X76997986Y-54574693D01*
X77231989Y-54605500D01*
X77231996Y-54605500D01*
X77468004Y-54605500D01*
X77468011Y-54605500D01*
X77702014Y-54574693D01*
X77929993Y-54513606D01*
X78148049Y-54423284D01*
X78352450Y-54305273D01*
X78507326Y-54186433D01*
X78542920Y-54159121D01*
X78543814Y-54160286D01*
X78601619Y-54133469D01*
X78670835Y-54142998D01*
X78696697Y-54159619D01*
X78697080Y-54159121D01*
X78839695Y-54268553D01*
X78887550Y-54305273D01*
X79009911Y-54375918D01*
X79091943Y-54423280D01*
X79091948Y-54423282D01*
X79091951Y-54423284D01*
X79310007Y-54513606D01*
X79537986Y-54574693D01*
X79771989Y-54605500D01*
X79771996Y-54605500D01*
X80008004Y-54605500D01*
X80008011Y-54605500D01*
X80242014Y-54574693D01*
X80469993Y-54513606D01*
X80688049Y-54423284D01*
X80752866Y-54385862D01*
X80863283Y-54322113D01*
X80925283Y-54305500D01*
X83513097Y-54305500D01*
X83746368Y-54268553D01*
X83970992Y-54195568D01*
X84181434Y-54088343D01*
X84372510Y-53949517D01*
X92344517Y-45977510D01*
X92483343Y-45786433D01*
X92590568Y-45575992D01*
X92663553Y-45351368D01*
X92700500Y-45118097D01*
X92700500Y-37824500D01*
X92720185Y-37757461D01*
X92772989Y-37711706D01*
X92824500Y-37700500D01*
X107027111Y-37700500D01*
X107094150Y-37720185D01*
G37*
%TD.AperFunction*%
%TA.AperFunction,Conductor*%
G36*
X108976992Y-33320185D02*
G01*
X108997634Y-33336819D01*
X120663181Y-45002365D01*
X120696666Y-45063688D01*
X120699500Y-45090046D01*
X120699500Y-111909952D01*
X120679815Y-111976991D01*
X120663181Y-111997633D01*
X111348764Y-121312049D01*
X111287441Y-121345534D01*
X111217749Y-121340550D01*
X111161816Y-121298678D01*
X111137399Y-121233214D01*
X111138610Y-121204969D01*
X111150500Y-121129901D01*
X111150500Y-120870097D01*
X111128947Y-120734021D01*
X111109860Y-120613507D01*
X111029579Y-120366428D01*
X111029577Y-120366425D01*
X111029577Y-120366423D01*
X110986787Y-120282445D01*
X110911634Y-120134949D01*
X110758931Y-119924771D01*
X110575229Y-119741069D01*
X110388963Y-119605739D01*
X110365054Y-119588368D01*
X110365053Y-119588367D01*
X110365051Y-119588366D01*
X110133572Y-119470421D01*
X110133571Y-119470420D01*
X110133568Y-119470419D01*
X110100963Y-119459825D01*
X110051603Y-119429576D01*
X107459708Y-116837681D01*
X107426223Y-116776358D01*
X107431207Y-116706666D01*
X107459708Y-116662319D01*
X107737017Y-116385010D01*
X108895500Y-116385010D01*
X108895500Y-116614989D01*
X108895501Y-116615005D01*
X108925518Y-116843009D01*
X108925519Y-116843015D01*
X108925520Y-116843020D01*
X108967792Y-117000781D01*
X108985046Y-117065175D01*
X108985049Y-117065185D01*
X109073057Y-117277654D01*
X109073061Y-117277664D01*
X109188055Y-117476839D01*
X109328064Y-117659303D01*
X109328070Y-117659310D01*
X109490689Y-117821929D01*
X109490696Y-117821935D01*
X109673160Y-117961944D01*
X109872335Y-118076938D01*
X109872336Y-118076938D01*
X109872339Y-118076940D01*
X110084824Y-118164954D01*
X110306980Y-118224480D01*
X110535004Y-118254500D01*
X110535011Y-118254500D01*
X110764989Y-118254500D01*
X110764996Y-118254500D01*
X110993020Y-118224480D01*
X111215176Y-118164954D01*
X111427661Y-118076940D01*
X111626840Y-117961944D01*
X111809305Y-117821934D01*
X111971934Y-117659305D01*
X112111944Y-117476840D01*
X112226940Y-117277661D01*
X112314954Y-117065176D01*
X112374480Y-116843020D01*
X112404500Y-116614996D01*
X112404500Y-116385004D01*
X112374480Y-116156980D01*
X112314954Y-115934824D01*
X112226940Y-115722339D01*
X112188491Y-115655744D01*
X112111944Y-115523160D01*
X111971935Y-115340696D01*
X111971929Y-115340689D01*
X111809310Y-115178070D01*
X111809303Y-115178064D01*
X111626839Y-115038055D01*
X111427664Y-114923061D01*
X111427654Y-114923057D01*
X111215185Y-114835049D01*
X111215178Y-114835047D01*
X111215176Y-114835046D01*
X110993020Y-114775520D01*
X110993014Y-114775519D01*
X110993009Y-114775518D01*
X110765005Y-114745501D01*
X110765002Y-114745500D01*
X110764996Y-114745500D01*
X110535004Y-114745500D01*
X110534998Y-114745500D01*
X110534994Y-114745501D01*
X110306990Y-114775518D01*
X110306983Y-114775519D01*
X110306980Y-114775520D01*
X110118390Y-114826052D01*
X110084824Y-114835046D01*
X110084814Y-114835049D01*
X109872345Y-114923057D01*
X109872335Y-114923061D01*
X109673160Y-115038055D01*
X109490696Y-115178064D01*
X109490689Y-115178070D01*
X109328070Y-115340689D01*
X109328064Y-115340696D01*
X109188055Y-115523160D01*
X109073061Y-115722335D01*
X109073060Y-115722339D01*
X108985049Y-115934814D01*
X108985046Y-115934824D01*
X108925521Y-116156977D01*
X108925518Y-116156990D01*
X108895501Y-116384994D01*
X108895500Y-116385010D01*
X107737017Y-116385010D01*
X109482923Y-114639104D01*
X111644518Y-112477510D01*
X111783343Y-112286433D01*
X111890568Y-112075992D01*
X111963553Y-111851368D01*
X112000500Y-111618097D01*
X112000500Y-38881902D01*
X111963553Y-38648631D01*
X111890566Y-38424003D01*
X111837784Y-38320414D01*
X111837783Y-38320413D01*
X111783343Y-38213566D01*
X111644517Y-38022490D01*
X108677510Y-35055483D01*
X108486434Y-34916657D01*
X108481420Y-34914102D01*
X108275996Y-34809433D01*
X108051368Y-34736446D01*
X107818097Y-34699500D01*
X107818092Y-34699500D01*
X91318092Y-34699500D01*
X91081908Y-34699500D01*
X91081903Y-34699500D01*
X90848631Y-34736446D01*
X90624003Y-34809433D01*
X90413566Y-34916657D01*
X90304550Y-34995862D01*
X90222490Y-35055483D01*
X90222488Y-35055485D01*
X90222487Y-35055485D01*
X90055485Y-35222487D01*
X90055485Y-35222488D01*
X90055483Y-35222490D01*
X90000877Y-35297648D01*
X89916657Y-35413566D01*
X89809433Y-35624003D01*
X89736446Y-35848631D01*
X89699500Y-36081902D01*
X89699500Y-44327111D01*
X89679815Y-44394150D01*
X89663181Y-44414792D01*
X82809792Y-51268181D01*
X82748469Y-51301666D01*
X82722111Y-51304500D01*
X80989046Y-51304500D01*
X80922007Y-51284815D01*
X80876252Y-51232011D01*
X80866308Y-51162853D01*
X80895333Y-51099297D01*
X80901365Y-51092819D01*
X84164776Y-47829408D01*
X87591966Y-44402219D01*
X87676089Y-44286433D01*
X87712287Y-44236610D01*
X87805220Y-44054219D01*
X87868477Y-43859534D01*
X87900500Y-43657352D01*
X87900500Y-35990047D01*
X87920185Y-35923008D01*
X87936819Y-35902366D01*
X90502366Y-33336819D01*
X90563689Y-33303334D01*
X90590047Y-33300500D01*
X108909953Y-33300500D01*
X108976992Y-33320185D01*
G37*
%TD.AperFunction*%
%TA.AperFunction,Conductor*%
G36*
X65637426Y-54397648D02*
G01*
X65680617Y-54452568D01*
X65689500Y-54498656D01*
X65689500Y-62808097D01*
X65726446Y-63041368D01*
X65799433Y-63265996D01*
X65906657Y-63476434D01*
X66045483Y-63667510D01*
X66522490Y-64144517D01*
X66713566Y-64283343D01*
X66924008Y-64390568D01*
X67148631Y-64463553D01*
X67236109Y-64477408D01*
X67381903Y-64500500D01*
X71376000Y-64500500D01*
X71443039Y-64520185D01*
X71488794Y-64572989D01*
X71500000Y-64624500D01*
X71500000Y-75500000D01*
X91500000Y-75500000D01*
X91500000Y-69917783D01*
X91519685Y-69850744D01*
X91572489Y-69804989D01*
X91641647Y-69795045D01*
X91705203Y-69824070D01*
X91742977Y-69882848D01*
X91743758Y-69885632D01*
X91788842Y-70053887D01*
X91876650Y-70265876D01*
X91876657Y-70265890D01*
X91991392Y-70464617D01*
X92131081Y-70646661D01*
X92131089Y-70646670D01*
X92293330Y-70808911D01*
X92293338Y-70808918D01*
X92293339Y-70808919D01*
X92294524Y-70809828D01*
X92475382Y-70948607D01*
X92475385Y-70948608D01*
X92475388Y-70948611D01*
X92674112Y-71063344D01*
X92689573Y-71069748D01*
X92743977Y-71113589D01*
X92766043Y-71179883D01*
X92748765Y-71247582D01*
X92717609Y-71282685D01*
X92548148Y-71412718D01*
X92362718Y-71598148D01*
X92203075Y-71806196D01*
X92071958Y-72033299D01*
X92071953Y-72033309D01*
X91971605Y-72275571D01*
X91971602Y-72275581D01*
X91903730Y-72528885D01*
X91869500Y-72788872D01*
X91869500Y-73051127D01*
X91896123Y-73253339D01*
X91903730Y-73311116D01*
X91971602Y-73564418D01*
X91971605Y-73564428D01*
X92071953Y-73806690D01*
X92071958Y-73806700D01*
X92203075Y-74033802D01*
X92265007Y-74114514D01*
X92290201Y-74179683D01*
X92276162Y-74248128D01*
X92265007Y-74265486D01*
X92203075Y-74346197D01*
X92071958Y-74573299D01*
X92071953Y-74573309D01*
X91971605Y-74815571D01*
X91971602Y-74815581D01*
X91903730Y-75068885D01*
X91869500Y-75328872D01*
X91869500Y-75591127D01*
X91896123Y-75793339D01*
X91903730Y-75851116D01*
X91971602Y-76104418D01*
X91971605Y-76104428D01*
X92071953Y-76346690D01*
X92071958Y-76346700D01*
X92203075Y-76573802D01*
X92265007Y-76654514D01*
X92290201Y-76719683D01*
X92276162Y-76788128D01*
X92265007Y-76805486D01*
X92203075Y-76886197D01*
X92071958Y-77113299D01*
X92071953Y-77113309D01*
X91971605Y-77355571D01*
X91971602Y-77355581D01*
X91903730Y-77608884D01*
X91869500Y-77868872D01*
X91869500Y-78131127D01*
X91896123Y-78333339D01*
X91903730Y-78391116D01*
X91971602Y-78644418D01*
X91971605Y-78644428D01*
X92071953Y-78886690D01*
X92071958Y-78886700D01*
X92203075Y-79113802D01*
X92265007Y-79194514D01*
X92290201Y-79259683D01*
X92276162Y-79328128D01*
X92265007Y-79345486D01*
X92203075Y-79426197D01*
X92071958Y-79653299D01*
X92071953Y-79653309D01*
X91971605Y-79895571D01*
X91971602Y-79895581D01*
X91903730Y-80148885D01*
X91869500Y-80408872D01*
X91869500Y-80671127D01*
X91896123Y-80873339D01*
X91903730Y-80931116D01*
X91971602Y-81184418D01*
X91971605Y-81184428D01*
X92071953Y-81426690D01*
X92071958Y-81426700D01*
X92203075Y-81653802D01*
X92265007Y-81734514D01*
X92290201Y-81799683D01*
X92276162Y-81868128D01*
X92265007Y-81885486D01*
X92203075Y-81966197D01*
X92071958Y-82193299D01*
X92071953Y-82193309D01*
X91971605Y-82435571D01*
X91971602Y-82435581D01*
X91903730Y-82688885D01*
X91869500Y-82948872D01*
X91869500Y-83211127D01*
X91896123Y-83413339D01*
X91903730Y-83471116D01*
X91952817Y-83654311D01*
X91971602Y-83724418D01*
X91971605Y-83724428D01*
X92071953Y-83966690D01*
X92071958Y-83966700D01*
X92203075Y-84193802D01*
X92265007Y-84274514D01*
X92290201Y-84339683D01*
X92276162Y-84408128D01*
X92265007Y-84425486D01*
X92203075Y-84506197D01*
X92071958Y-84733299D01*
X92071953Y-84733309D01*
X91971605Y-84975571D01*
X91971602Y-84975581D01*
X91915840Y-85183691D01*
X91903730Y-85228885D01*
X91869500Y-85488872D01*
X91869500Y-85751127D01*
X91896123Y-85953339D01*
X91903730Y-86011116D01*
X91962788Y-86231523D01*
X91971602Y-86264418D01*
X91971605Y-86264428D01*
X92071953Y-86506690D01*
X92071958Y-86506700D01*
X92203075Y-86733802D01*
X92265007Y-86814514D01*
X92290201Y-86879683D01*
X92276162Y-86948128D01*
X92265007Y-86965486D01*
X92203075Y-87046197D01*
X92071958Y-87273299D01*
X92071953Y-87273309D01*
X91971605Y-87515571D01*
X91971602Y-87515581D01*
X91903730Y-87768885D01*
X91869500Y-88028872D01*
X91869500Y-88291127D01*
X91895943Y-88491966D01*
X91903730Y-88551116D01*
X91970552Y-88800500D01*
X91971602Y-88804418D01*
X91971605Y-88804428D01*
X92071953Y-89046690D01*
X92071958Y-89046700D01*
X92203075Y-89273802D01*
X92265007Y-89354514D01*
X92290201Y-89419683D01*
X92276162Y-89488128D01*
X92265007Y-89505486D01*
X92203075Y-89586197D01*
X92071958Y-89813299D01*
X92071953Y-89813309D01*
X91971605Y-90055571D01*
X91971602Y-90055581D01*
X91903730Y-90308885D01*
X91869500Y-90568872D01*
X91869500Y-90831127D01*
X91896123Y-91033339D01*
X91903730Y-91091116D01*
X91922651Y-91161730D01*
X91971602Y-91344418D01*
X91971605Y-91344428D01*
X92071953Y-91586690D01*
X92071958Y-91586700D01*
X92203075Y-91813802D01*
X92265007Y-91894514D01*
X92290201Y-91959683D01*
X92276162Y-92028128D01*
X92265007Y-92045486D01*
X92203075Y-92126197D01*
X92071958Y-92353299D01*
X92071953Y-92353309D01*
X91971605Y-92595571D01*
X91971602Y-92595581D01*
X91903730Y-92848885D01*
X91869500Y-93108872D01*
X91869500Y-93371127D01*
X91896123Y-93573339D01*
X91903730Y-93631116D01*
X91971602Y-93884418D01*
X91971605Y-93884428D01*
X92071953Y-94126690D01*
X92071958Y-94126700D01*
X92203075Y-94353802D01*
X92265007Y-94434514D01*
X92290201Y-94499683D01*
X92276162Y-94568128D01*
X92265007Y-94585486D01*
X92203075Y-94666197D01*
X92071958Y-94893299D01*
X92071953Y-94893309D01*
X91971605Y-95135571D01*
X91971602Y-95135581D01*
X91903730Y-95388885D01*
X91869500Y-95648872D01*
X91869500Y-95911127D01*
X91896123Y-96113339D01*
X91903730Y-96171116D01*
X91940639Y-96308862D01*
X91971602Y-96424418D01*
X91971605Y-96424428D01*
X92071953Y-96666690D01*
X92071958Y-96666700D01*
X92203075Y-96893802D01*
X92265007Y-96974514D01*
X92290201Y-97039683D01*
X92276162Y-97108128D01*
X92265007Y-97125486D01*
X92203075Y-97206197D01*
X92071958Y-97433299D01*
X92071953Y-97433309D01*
X91971605Y-97675571D01*
X91971602Y-97675581D01*
X91903730Y-97928885D01*
X91869500Y-98188872D01*
X91869500Y-98451127D01*
X91886349Y-98579101D01*
X91903730Y-98711116D01*
X91971602Y-98964418D01*
X91971605Y-98964428D01*
X92071953Y-99206690D01*
X92071958Y-99206700D01*
X92203075Y-99433802D01*
X92265007Y-99514514D01*
X92290201Y-99579683D01*
X92276162Y-99648128D01*
X92265007Y-99665486D01*
X92203075Y-99746197D01*
X92071958Y-99973299D01*
X92071953Y-99973309D01*
X91971605Y-100215571D01*
X91971602Y-100215581D01*
X91903730Y-100468885D01*
X91869500Y-100728872D01*
X91869500Y-100991127D01*
X91896123Y-101193339D01*
X91903730Y-101251116D01*
X91971602Y-101504418D01*
X91971605Y-101504428D01*
X92071953Y-101746690D01*
X92071958Y-101746700D01*
X92203075Y-101973802D01*
X92265007Y-102054514D01*
X92290201Y-102119683D01*
X92276162Y-102188128D01*
X92265007Y-102205486D01*
X92203075Y-102286197D01*
X92071958Y-102513299D01*
X92071953Y-102513309D01*
X91971605Y-102755571D01*
X91971602Y-102755581D01*
X91903730Y-103008885D01*
X91869500Y-103268872D01*
X91869500Y-103531127D01*
X91896123Y-103733339D01*
X91903730Y-103791116D01*
X91971602Y-104044418D01*
X91971605Y-104044428D01*
X92071953Y-104286690D01*
X92071958Y-104286700D01*
X92203075Y-104513803D01*
X92362718Y-104721851D01*
X92362726Y-104721860D01*
X92548143Y-104907277D01*
X92548150Y-104907283D01*
X92592323Y-104941178D01*
X92633526Y-104997605D01*
X92637681Y-105067351D01*
X92617157Y-105112437D01*
X92587084Y-105153830D01*
X92479897Y-105364197D01*
X92406934Y-105588752D01*
X92370000Y-105821947D01*
X92370000Y-106058052D01*
X92406934Y-106291248D01*
X92458391Y-106449618D01*
X92460386Y-106519460D01*
X92424305Y-106579292D01*
X92397872Y-106597844D01*
X92316595Y-106640299D01*
X92158890Y-106768890D01*
X92030304Y-106926590D01*
X92030302Y-106926593D01*
X92006206Y-106972722D01*
X91936089Y-107106954D01*
X91880114Y-107302583D01*
X91880113Y-107302586D01*
X91869500Y-107421966D01*
X91869500Y-108230953D01*
X91849815Y-108297992D01*
X91797011Y-108343747D01*
X91727853Y-108353691D01*
X91664297Y-108324666D01*
X91657819Y-108318634D01*
X75727221Y-92388036D01*
X75727219Y-92388034D01*
X75561611Y-92267713D01*
X75449323Y-92210500D01*
X75379219Y-92174780D01*
X75229696Y-92126197D01*
X75229694Y-92126195D01*
X75184536Y-92111523D01*
X75184531Y-92111522D01*
X75043364Y-92089163D01*
X74982352Y-92079500D01*
X74982351Y-92079500D01*
X70184494Y-92079500D01*
X70117455Y-92059815D01*
X70071700Y-92007011D01*
X70061756Y-91937853D01*
X70086119Y-91880013D01*
X70136916Y-91813813D01*
X70136924Y-91813803D01*
X70268043Y-91586697D01*
X70368398Y-91344419D01*
X70436270Y-91091116D01*
X70470500Y-90831120D01*
X70470500Y-90568880D01*
X70436270Y-90308884D01*
X70368398Y-90055581D01*
X70368394Y-90055571D01*
X70268046Y-89813309D01*
X70268041Y-89813299D01*
X70136927Y-89586203D01*
X70136924Y-89586197D01*
X70074991Y-89505485D01*
X70049797Y-89440319D01*
X70063835Y-89371874D01*
X70074991Y-89354514D01*
X70136924Y-89273803D01*
X70268043Y-89046697D01*
X70368398Y-88804419D01*
X70436270Y-88551116D01*
X70470500Y-88291120D01*
X70470500Y-88028880D01*
X70436270Y-87768884D01*
X70368398Y-87515581D01*
X70368394Y-87515571D01*
X70268046Y-87273309D01*
X70268041Y-87273299D01*
X70136927Y-87046203D01*
X70136924Y-87046197D01*
X70074991Y-86965485D01*
X70049797Y-86900319D01*
X70063835Y-86831874D01*
X70074991Y-86814514D01*
X70136924Y-86733803D01*
X70268043Y-86506697D01*
X70368398Y-86264419D01*
X70436270Y-86011116D01*
X70470500Y-85751120D01*
X70470500Y-85488880D01*
X70436270Y-85228884D01*
X70368398Y-84975581D01*
X70345956Y-84921401D01*
X70268046Y-84733309D01*
X70268041Y-84733299D01*
X70143034Y-84516780D01*
X70136924Y-84506197D01*
X70074991Y-84425485D01*
X70049797Y-84360319D01*
X70063835Y-84291874D01*
X70074991Y-84274514D01*
X70136924Y-84193803D01*
X70268043Y-83966697D01*
X70368398Y-83724419D01*
X70436270Y-83471116D01*
X70470500Y-83211120D01*
X70470500Y-82948880D01*
X70436270Y-82688884D01*
X70368398Y-82435581D01*
X70368394Y-82435571D01*
X70268046Y-82193309D01*
X70268041Y-82193299D01*
X70136927Y-81966203D01*
X70136924Y-81966197D01*
X70074991Y-81885485D01*
X70049797Y-81820319D01*
X70063835Y-81751874D01*
X70074991Y-81734514D01*
X70136924Y-81653803D01*
X70268043Y-81426697D01*
X70368398Y-81184419D01*
X70436270Y-80931116D01*
X70470500Y-80671120D01*
X70470500Y-80408880D01*
X70436270Y-80148884D01*
X70368398Y-79895581D01*
X70368394Y-79895571D01*
X70268046Y-79653309D01*
X70268041Y-79653299D01*
X70136927Y-79426203D01*
X70136924Y-79426197D01*
X70074991Y-79345485D01*
X70049797Y-79280319D01*
X70063835Y-79211874D01*
X70074991Y-79194514D01*
X70136924Y-79113803D01*
X70268043Y-78886697D01*
X70368398Y-78644419D01*
X70436270Y-78391116D01*
X70470500Y-78131120D01*
X70470500Y-77868880D01*
X70436270Y-77608884D01*
X70368398Y-77355581D01*
X70280076Y-77142352D01*
X70268046Y-77113309D01*
X70268041Y-77113299D01*
X70136927Y-76886203D01*
X70136924Y-76886197D01*
X70074991Y-76805485D01*
X70049797Y-76740319D01*
X70063835Y-76671874D01*
X70074991Y-76654514D01*
X70136924Y-76573803D01*
X70268043Y-76346697D01*
X70368398Y-76104419D01*
X70436270Y-75851116D01*
X70470500Y-75591120D01*
X70470500Y-75328880D01*
X70436270Y-75068884D01*
X70368398Y-74815581D01*
X70368394Y-74815571D01*
X70268046Y-74573309D01*
X70268041Y-74573299D01*
X70136927Y-74346203D01*
X70136924Y-74346197D01*
X70074991Y-74265485D01*
X70049797Y-74200319D01*
X70063835Y-74131874D01*
X70074991Y-74114514D01*
X70136924Y-74033803D01*
X70268043Y-73806697D01*
X70368398Y-73564419D01*
X70436270Y-73311116D01*
X70470500Y-73051120D01*
X70470500Y-72788880D01*
X70436270Y-72528884D01*
X70368398Y-72275581D01*
X70279573Y-72061138D01*
X70268046Y-72033309D01*
X70268041Y-72033299D01*
X70136924Y-71806196D01*
X69977281Y-71598148D01*
X69977274Y-71598140D01*
X69791860Y-71412726D01*
X69791851Y-71412718D01*
X69639919Y-71296135D01*
X69598717Y-71239707D01*
X69594562Y-71169961D01*
X69628775Y-71109041D01*
X69667949Y-71083200D01*
X69715888Y-71063344D01*
X69914612Y-70948611D01*
X70096661Y-70808919D01*
X70096667Y-70808913D01*
X70096670Y-70808911D01*
X70258911Y-70646670D01*
X70258914Y-70646665D01*
X70258919Y-70646661D01*
X70398611Y-70464612D01*
X70513344Y-70265888D01*
X70601158Y-70053887D01*
X70660548Y-69832238D01*
X70690500Y-69604734D01*
X70690500Y-69375266D01*
X70660548Y-69147762D01*
X70601158Y-68926113D01*
X70513344Y-68714112D01*
X70398611Y-68515388D01*
X70398608Y-68515385D01*
X70398607Y-68515382D01*
X70258918Y-68333338D01*
X70258911Y-68333330D01*
X70096670Y-68171089D01*
X70096661Y-68171081D01*
X69914617Y-68031392D01*
X69715890Y-67916657D01*
X69715876Y-67916650D01*
X69503887Y-67828842D01*
X69282238Y-67769452D01*
X69244215Y-67764446D01*
X69054741Y-67739500D01*
X69054734Y-67739500D01*
X68825266Y-67739500D01*
X68825258Y-67739500D01*
X68608715Y-67768009D01*
X68597762Y-67769452D01*
X68504076Y-67794554D01*
X68376112Y-67828842D01*
X68164123Y-67916650D01*
X68164109Y-67916657D01*
X67965382Y-68031392D01*
X67783338Y-68171081D01*
X67621081Y-68333338D01*
X67481392Y-68515382D01*
X67366657Y-68714109D01*
X67366650Y-68714123D01*
X67278842Y-68926112D01*
X67219453Y-69147759D01*
X67219451Y-69147770D01*
X67189500Y-69375258D01*
X67189500Y-69604741D01*
X67214009Y-69790893D01*
X67219452Y-69832238D01*
X67278842Y-70053887D01*
X67366650Y-70265876D01*
X67366657Y-70265890D01*
X67481392Y-70464617D01*
X67621081Y-70646661D01*
X67621089Y-70646670D01*
X67783331Y-70808912D01*
X67783335Y-70808915D01*
X67783339Y-70808919D01*
X67807762Y-70827660D01*
X67848964Y-70884087D01*
X67853118Y-70953834D01*
X67818905Y-71014753D01*
X67779727Y-71040595D01*
X67583309Y-71121953D01*
X67583299Y-71121958D01*
X67356196Y-71253075D01*
X67148148Y-71412718D01*
X66962718Y-71598148D01*
X66803075Y-71806196D01*
X66671958Y-72033299D01*
X66671953Y-72033309D01*
X66571605Y-72275571D01*
X66571602Y-72275581D01*
X66503730Y-72528885D01*
X66469500Y-72788872D01*
X66469500Y-73051127D01*
X66496123Y-73253339D01*
X66503730Y-73311116D01*
X66571602Y-73564418D01*
X66571605Y-73564428D01*
X66671953Y-73806690D01*
X66671958Y-73806700D01*
X66803075Y-74033802D01*
X66865007Y-74114514D01*
X66890201Y-74179683D01*
X66876162Y-74248128D01*
X66865007Y-74265486D01*
X66803075Y-74346197D01*
X66671958Y-74573299D01*
X66671953Y-74573309D01*
X66571605Y-74815571D01*
X66571602Y-74815581D01*
X66503730Y-75068885D01*
X66469500Y-75328872D01*
X66469500Y-75591127D01*
X66496123Y-75793339D01*
X66503730Y-75851116D01*
X66571602Y-76104418D01*
X66571605Y-76104428D01*
X66671953Y-76346690D01*
X66671958Y-76346700D01*
X66803075Y-76573802D01*
X66865007Y-76654514D01*
X66890201Y-76719683D01*
X66876162Y-76788128D01*
X66865007Y-76805486D01*
X66803075Y-76886197D01*
X66671958Y-77113299D01*
X66671953Y-77113309D01*
X66571605Y-77355571D01*
X66571602Y-77355581D01*
X66503730Y-77608884D01*
X66469500Y-77868872D01*
X66469500Y-78131127D01*
X66496123Y-78333339D01*
X66503730Y-78391116D01*
X66571602Y-78644418D01*
X66571605Y-78644428D01*
X66671953Y-78886690D01*
X66671958Y-78886700D01*
X66803075Y-79113802D01*
X66865007Y-79194514D01*
X66890201Y-79259683D01*
X66876162Y-79328128D01*
X66865007Y-79345486D01*
X66803075Y-79426197D01*
X66671958Y-79653299D01*
X66671953Y-79653309D01*
X66571605Y-79895571D01*
X66571602Y-79895581D01*
X66503730Y-80148885D01*
X66469500Y-80408872D01*
X66469500Y-80671127D01*
X66496123Y-80873339D01*
X66503730Y-80931116D01*
X66571602Y-81184418D01*
X66571605Y-81184428D01*
X66671953Y-81426690D01*
X66671958Y-81426700D01*
X66803075Y-81653802D01*
X66865007Y-81734514D01*
X66890201Y-81799683D01*
X66876162Y-81868128D01*
X66865007Y-81885486D01*
X66803075Y-81966197D01*
X66671958Y-82193299D01*
X66671953Y-82193309D01*
X66571605Y-82435571D01*
X66571602Y-82435581D01*
X66503730Y-82688885D01*
X66469500Y-82948872D01*
X66469500Y-83211127D01*
X66496123Y-83413339D01*
X66503730Y-83471116D01*
X66552817Y-83654311D01*
X66571602Y-83724418D01*
X66571605Y-83724428D01*
X66671953Y-83966690D01*
X66671958Y-83966700D01*
X66803075Y-84193802D01*
X66865007Y-84274514D01*
X66890201Y-84339683D01*
X66876162Y-84408128D01*
X66865007Y-84425486D01*
X66803075Y-84506197D01*
X66671958Y-84733299D01*
X66671953Y-84733309D01*
X66571605Y-84975571D01*
X66571602Y-84975581D01*
X66515840Y-85183691D01*
X66503730Y-85228885D01*
X66469500Y-85488872D01*
X66469500Y-85751127D01*
X66496123Y-85953339D01*
X66503730Y-86011116D01*
X66562788Y-86231523D01*
X66571602Y-86264418D01*
X66571605Y-86264428D01*
X66671953Y-86506690D01*
X66671958Y-86506700D01*
X66803075Y-86733802D01*
X66865007Y-86814514D01*
X66890201Y-86879683D01*
X66876162Y-86948128D01*
X66865007Y-86965486D01*
X66803075Y-87046197D01*
X66671958Y-87273299D01*
X66671953Y-87273309D01*
X66571605Y-87515571D01*
X66571603Y-87515578D01*
X66571602Y-87515581D01*
X66548353Y-87602351D01*
X66544275Y-87617569D01*
X66507910Y-87677229D01*
X66445063Y-87707758D01*
X66375687Y-87699463D01*
X66321809Y-87654978D01*
X66300535Y-87588426D01*
X66300500Y-87585475D01*
X66300500Y-87397648D01*
X66268477Y-87195465D01*
X66239127Y-87105137D01*
X66205220Y-87000781D01*
X66205218Y-87000778D01*
X66205218Y-87000776D01*
X66119157Y-86831874D01*
X66112287Y-86818390D01*
X66104556Y-86807749D01*
X65991971Y-86652786D01*
X65847213Y-86508028D01*
X65681613Y-86387715D01*
X65681612Y-86387714D01*
X65681610Y-86387713D01*
X65624653Y-86358691D01*
X65499223Y-86294781D01*
X65304534Y-86231522D01*
X65129995Y-86203878D01*
X65102352Y-86199500D01*
X65102351Y-86199500D01*
X63424500Y-86199500D01*
X63357461Y-86179815D01*
X63311706Y-86127011D01*
X63300500Y-86075500D01*
X63300500Y-56045047D01*
X63320185Y-55978008D01*
X63336819Y-55957366D01*
X64652366Y-54641819D01*
X64713689Y-54608334D01*
X64740047Y-54605500D01*
X64768004Y-54605500D01*
X64768011Y-54605500D01*
X65002014Y-54574693D01*
X65229993Y-54513606D01*
X65448049Y-54423284D01*
X65448056Y-54423279D01*
X65448060Y-54423278D01*
X65503499Y-54391270D01*
X65571399Y-54374796D01*
X65637426Y-54397648D01*
G37*
%TD.AperFunction*%
%TA.AperFunction,Conductor*%
G36*
X71442539Y-30520185D02*
G01*
X71488294Y-30572989D01*
X71499500Y-30624500D01*
X71499500Y-36503008D01*
X71479815Y-36570047D01*
X71463181Y-36590689D01*
X66335689Y-41718181D01*
X66274366Y-41751666D01*
X66248008Y-41754500D01*
X64022000Y-41754500D01*
X63954961Y-41734815D01*
X63909206Y-41682011D01*
X63898000Y-41630500D01*
X63898000Y-32779402D01*
X63861053Y-32546131D01*
X63810507Y-32390569D01*
X63810507Y-32390567D01*
X63788070Y-32321512D01*
X63788068Y-32321506D01*
X63680842Y-32111065D01*
X63542017Y-31919990D01*
X63157510Y-31535483D01*
X62966434Y-31396657D01*
X62965341Y-31396100D01*
X62755996Y-31289433D01*
X62531368Y-31216446D01*
X62298097Y-31179500D01*
X62298092Y-31179500D01*
X57101382Y-31179500D01*
X57034343Y-31159815D01*
X57025896Y-31153876D01*
X57005288Y-31138063D01*
X56795215Y-31016777D01*
X56795205Y-31016773D01*
X56571104Y-30923947D01*
X56336785Y-30861161D01*
X56096289Y-30829500D01*
X56096288Y-30829500D01*
X55853712Y-30829500D01*
X55853711Y-30829500D01*
X55613214Y-30861161D01*
X55378895Y-30923947D01*
X55154794Y-31016773D01*
X55154785Y-31016777D01*
X54944706Y-31138067D01*
X54752263Y-31285733D01*
X54752256Y-31285739D01*
X54580739Y-31457256D01*
X54580733Y-31457263D01*
X54433067Y-31649706D01*
X54311777Y-31859785D01*
X54311773Y-31859794D01*
X54218947Y-32083895D01*
X54156161Y-32318214D01*
X54124500Y-32558711D01*
X54124500Y-32801288D01*
X54156161Y-33041785D01*
X54218947Y-33276104D01*
X54311773Y-33500205D01*
X54311776Y-33500212D01*
X54433064Y-33710289D01*
X54433066Y-33710292D01*
X54433067Y-33710293D01*
X54440526Y-33720014D01*
X54465720Y-33785183D01*
X54451682Y-33853628D01*
X54402867Y-33903617D01*
X54342150Y-33919500D01*
X43822351Y-33919500D01*
X43617648Y-33919500D01*
X43550253Y-33930174D01*
X43415463Y-33951523D01*
X43318123Y-33983150D01*
X43318123Y-33983151D01*
X43265352Y-34000297D01*
X43220774Y-34014782D01*
X43129584Y-34061245D01*
X43129585Y-34061246D01*
X43038388Y-34107713D01*
X42872778Y-34228036D01*
X41008036Y-36092778D01*
X40887713Y-36258388D01*
X40841246Y-36349585D01*
X40841245Y-36349584D01*
X40794333Y-36441655D01*
X40793272Y-36445420D01*
X40731522Y-36635467D01*
X40731522Y-36635468D01*
X40708236Y-36782490D01*
X40708236Y-36782491D01*
X40699500Y-36837643D01*
X40699500Y-77142351D01*
X40731522Y-77344535D01*
X40750894Y-77404153D01*
X40756098Y-77420169D01*
X40794780Y-77539219D01*
X40830276Y-77608884D01*
X40887713Y-77721611D01*
X41008034Y-77887219D01*
X41008036Y-77887221D01*
X66433181Y-103312366D01*
X66466666Y-103373689D01*
X66469500Y-103400047D01*
X66469500Y-103531127D01*
X66496123Y-103733339D01*
X66503730Y-103791116D01*
X66571602Y-104044418D01*
X66571605Y-104044428D01*
X66671953Y-104286690D01*
X66671958Y-104286700D01*
X66803075Y-104513803D01*
X66962718Y-104721851D01*
X66962726Y-104721860D01*
X67148143Y-104907277D01*
X67148150Y-104907283D01*
X67192323Y-104941178D01*
X67233526Y-104997605D01*
X67237681Y-105067351D01*
X67217157Y-105112437D01*
X67187084Y-105153830D01*
X67079897Y-105364197D01*
X67006934Y-105588752D01*
X66970000Y-105821947D01*
X66970000Y-106058052D01*
X67006934Y-106291247D01*
X67079897Y-106515802D01*
X67187087Y-106726174D01*
X67217155Y-106767560D01*
X67217637Y-106768911D01*
X67218755Y-106769814D01*
X67229343Y-106801719D01*
X67240635Y-106833366D01*
X67240309Y-106834764D01*
X67240762Y-106836127D01*
X67232417Y-106868700D01*
X67224809Y-106901420D01*
X67223665Y-106902869D01*
X67223424Y-106903811D01*
X67218937Y-106908861D01*
X67201254Y-106931273D01*
X67196960Y-106935263D01*
X67148149Y-106972718D01*
X67036079Y-107084787D01*
X67034422Y-107086328D01*
X67005124Y-107100961D01*
X66976364Y-107116666D01*
X66972947Y-107117033D01*
X66971915Y-107117549D01*
X66970040Y-107117345D01*
X66950005Y-107119500D01*
X39124500Y-107119500D01*
X39057461Y-107099815D01*
X39011706Y-107047011D01*
X39000500Y-106995500D01*
X39000500Y-31672889D01*
X39020185Y-31605850D01*
X39036819Y-31585208D01*
X40085208Y-30536819D01*
X40146531Y-30503334D01*
X40172889Y-30500500D01*
X71375500Y-30500500D01*
X71442539Y-30520185D01*
G37*
%TD.AperFunction*%
%TA.AperFunction,Conductor*%
G36*
X60618834Y-56237864D02*
G01*
X60674767Y-56279736D01*
X60699184Y-56345200D01*
X60699500Y-56354046D01*
X60699500Y-87602351D01*
X60731522Y-87804534D01*
X60794781Y-87999223D01*
X60887715Y-88181613D01*
X61008028Y-88347213D01*
X61152786Y-88491971D01*
X61307749Y-88604556D01*
X61318390Y-88612287D01*
X61426722Y-88667485D01*
X61500776Y-88705218D01*
X61500778Y-88705218D01*
X61500781Y-88705220D01*
X61605137Y-88739127D01*
X61695465Y-88768477D01*
X61796557Y-88784488D01*
X61897648Y-88800500D01*
X62102352Y-88800500D01*
X63575500Y-88800500D01*
X63642539Y-88820185D01*
X63688294Y-88872989D01*
X63699500Y-88924500D01*
X63699500Y-91520953D01*
X63679815Y-91587992D01*
X63627011Y-91633747D01*
X63557853Y-91643691D01*
X63494297Y-91614666D01*
X63487819Y-91608634D01*
X57336819Y-85457634D01*
X57303334Y-85396311D01*
X57300500Y-85369953D01*
X57300500Y-59505046D01*
X57320185Y-59438007D01*
X57336819Y-59417365D01*
X60487819Y-56266365D01*
X60549142Y-56232880D01*
X60618834Y-56237864D01*
G37*
%TD.AperFunction*%
%TA.AperFunction,Conductor*%
G36*
X54409189Y-36540185D02*
G01*
X54454944Y-36592989D01*
X54464888Y-36662147D01*
X54440526Y-36719986D01*
X54433067Y-36729706D01*
X54311777Y-36939785D01*
X54311773Y-36939794D01*
X54218947Y-37163895D01*
X54156161Y-37398214D01*
X54124500Y-37638711D01*
X54124500Y-37719953D01*
X54104815Y-37786992D01*
X54088181Y-37807634D01*
X53232634Y-38663181D01*
X53171311Y-38696666D01*
X53144953Y-38699500D01*
X49602352Y-38699500D01*
X49397648Y-38699500D01*
X49373329Y-38703351D01*
X49195465Y-38731522D01*
X49000776Y-38794781D01*
X48818386Y-38887715D01*
X48652786Y-39008028D01*
X48508028Y-39152786D01*
X48387715Y-39318386D01*
X48294781Y-39500776D01*
X48231522Y-39695465D01*
X48199500Y-39897648D01*
X48199500Y-81100953D01*
X48179815Y-81167992D01*
X48127011Y-81213747D01*
X48057853Y-81223691D01*
X47994297Y-81194666D01*
X47987819Y-81188634D01*
X43336819Y-76537634D01*
X43303334Y-76476311D01*
X43300500Y-76449953D01*
X43300500Y-37530047D01*
X43320185Y-37463008D01*
X43336819Y-37442366D01*
X44222366Y-36556819D01*
X44283689Y-36523334D01*
X44310047Y-36520500D01*
X54342150Y-36520500D01*
X54409189Y-36540185D01*
G37*
%TD.AperFunction*%
%TA.AperFunction,Conductor*%
G36*
X96945148Y-52720185D02*
G01*
X96990903Y-52772989D01*
X97000847Y-52842147D01*
X96971822Y-52905703D01*
X96965790Y-52912181D01*
X95827985Y-54049987D01*
X95827984Y-54049988D01*
X95689157Y-54241065D01*
X95649540Y-54318819D01*
X95581933Y-54451503D01*
X95508946Y-54676131D01*
X95472000Y-54909402D01*
X95472000Y-61375500D01*
X95452315Y-61442539D01*
X95399511Y-61488294D01*
X95348000Y-61499500D01*
X68814500Y-61499500D01*
X68747461Y-61479815D01*
X68701706Y-61427011D01*
X68690500Y-61375500D01*
X68690500Y-53840281D01*
X68694411Y-53825682D01*
X68693532Y-53819568D01*
X68694294Y-53817363D01*
X68693994Y-53811051D01*
X68707107Y-53778290D01*
X68808284Y-53603049D01*
X68898606Y-53384993D01*
X68927398Y-53277538D01*
X68959490Y-53221955D01*
X69330000Y-52851445D01*
X69330000Y-52857661D01*
X69357259Y-52959394D01*
X69409920Y-53050606D01*
X69484394Y-53125080D01*
X69575606Y-53177741D01*
X69677339Y-53205000D01*
X69683553Y-53205000D01*
X69004076Y-53884474D01*
X69048650Y-53916859D01*
X69230968Y-54009755D01*
X69425582Y-54072990D01*
X69627683Y-54105000D01*
X69832317Y-54105000D01*
X70034417Y-54072990D01*
X70229031Y-54009755D01*
X70411349Y-53916859D01*
X70455921Y-53884474D01*
X69776447Y-53205000D01*
X69782661Y-53205000D01*
X69884394Y-53177741D01*
X69975606Y-53125080D01*
X70050080Y-53050606D01*
X70102741Y-52959394D01*
X70130000Y-52857661D01*
X70130000Y-52851447D01*
X70809474Y-53530921D01*
X70841861Y-53486347D01*
X70841861Y-53486346D01*
X70889515Y-53392820D01*
X70937489Y-53342024D01*
X71005310Y-53325228D01*
X71071445Y-53347765D01*
X71110485Y-53392819D01*
X71158141Y-53486350D01*
X71158147Y-53486359D01*
X71190523Y-53530921D01*
X71190524Y-53530922D01*
X71870000Y-52851446D01*
X71870000Y-52857661D01*
X71897259Y-52959394D01*
X71949920Y-53050606D01*
X72024394Y-53125080D01*
X72115606Y-53177741D01*
X72217339Y-53205000D01*
X72223553Y-53205000D01*
X71544076Y-53884474D01*
X71588650Y-53916859D01*
X71770968Y-54009755D01*
X71965582Y-54072990D01*
X72167683Y-54105000D01*
X72372317Y-54105000D01*
X72574417Y-54072990D01*
X72769031Y-54009755D01*
X72951349Y-53916859D01*
X72995921Y-53884474D01*
X72316447Y-53205000D01*
X72322661Y-53205000D01*
X72424394Y-53177741D01*
X72515606Y-53125080D01*
X72590080Y-53050606D01*
X72642741Y-52959394D01*
X72670000Y-52857661D01*
X72670000Y-52851447D01*
X73040508Y-53221955D01*
X73072602Y-53277541D01*
X73100567Y-53381908D01*
X73101395Y-53384995D01*
X73161839Y-53530921D01*
X73191716Y-53603049D01*
X73292887Y-53778282D01*
X73309500Y-53840281D01*
X73309500Y-56928097D01*
X73346446Y-57161368D01*
X73419433Y-57385996D01*
X73526657Y-57596434D01*
X73665483Y-57787510D01*
X75822490Y-59944517D01*
X76013566Y-60083343D01*
X76085942Y-60120220D01*
X76224003Y-60190566D01*
X76224005Y-60190566D01*
X76224008Y-60190568D01*
X76344412Y-60229689D01*
X76448631Y-60263553D01*
X76681903Y-60300500D01*
X76681908Y-60300500D01*
X85818097Y-60300500D01*
X86051368Y-60263553D01*
X86275992Y-60190568D01*
X86486434Y-60083343D01*
X86677510Y-59944517D01*
X92144517Y-54477510D01*
X92283343Y-54286433D01*
X92390568Y-54075992D01*
X92463553Y-53851368D01*
X92475615Y-53775214D01*
X92500500Y-53618097D01*
X92500500Y-52824500D01*
X92520185Y-52757461D01*
X92572989Y-52711706D01*
X92624500Y-52700500D01*
X96878109Y-52700500D01*
X96945148Y-52720185D01*
G37*
%TD.AperFunction*%
%TA.AperFunction,Conductor*%
G36*
X133942539Y-27020185D02*
G01*
X133988294Y-27072989D01*
X133999500Y-27124500D01*
X133999500Y-125875500D01*
X133979815Y-125942539D01*
X133927011Y-125988294D01*
X133875500Y-125999500D01*
X35124500Y-125999500D01*
X35057461Y-125979815D01*
X35011706Y-125927011D01*
X35000500Y-125875500D01*
X35000500Y-120878711D01*
X39749500Y-120878711D01*
X39749500Y-121121288D01*
X39778365Y-121340550D01*
X39781162Y-121361789D01*
X39792444Y-121403895D01*
X39843947Y-121596104D01*
X39936773Y-121820205D01*
X39936776Y-121820212D01*
X40058064Y-122030289D01*
X40058066Y-122030292D01*
X40058067Y-122030293D01*
X40205733Y-122222736D01*
X40205739Y-122222743D01*
X40377256Y-122394260D01*
X40377262Y-122394265D01*
X40569711Y-122541936D01*
X40779788Y-122663224D01*
X41003900Y-122756054D01*
X41238211Y-122818838D01*
X41418586Y-122842584D01*
X41478711Y-122850500D01*
X41478712Y-122850500D01*
X41721289Y-122850500D01*
X41769388Y-122844167D01*
X41961789Y-122818838D01*
X42196100Y-122756054D01*
X42420212Y-122663224D01*
X42630289Y-122541936D01*
X42822738Y-122394265D01*
X42994265Y-122222738D01*
X43141936Y-122030289D01*
X43263224Y-121820212D01*
X43356054Y-121596100D01*
X43418838Y-121361789D01*
X43450500Y-121121288D01*
X43450500Y-120878712D01*
X43418838Y-120638211D01*
X43356054Y-120403900D01*
X43263224Y-120179788D01*
X43141936Y-119969711D01*
X42994265Y-119777262D01*
X42994260Y-119777256D01*
X42822743Y-119605739D01*
X42822736Y-119605733D01*
X42630293Y-119458067D01*
X42630292Y-119458066D01*
X42630289Y-119458064D01*
X42420212Y-119336776D01*
X42420205Y-119336773D01*
X42196104Y-119243947D01*
X41961785Y-119181161D01*
X41721289Y-119149500D01*
X41721288Y-119149500D01*
X41478712Y-119149500D01*
X41478711Y-119149500D01*
X41238214Y-119181161D01*
X41003895Y-119243947D01*
X40779794Y-119336773D01*
X40779785Y-119336777D01*
X40569706Y-119458067D01*
X40377263Y-119605733D01*
X40377256Y-119605739D01*
X40205739Y-119777256D01*
X40205733Y-119777263D01*
X40058067Y-119969706D01*
X39936777Y-120179785D01*
X39936773Y-120179794D01*
X39843947Y-120403895D01*
X39781161Y-120638214D01*
X39749500Y-120878711D01*
X35000500Y-120878711D01*
X35000500Y-116325258D01*
X67189500Y-116325258D01*
X67189500Y-116554741D01*
X67214446Y-116744215D01*
X67219452Y-116782238D01*
X67278008Y-117000776D01*
X67278842Y-117003887D01*
X67366650Y-117215876D01*
X67366657Y-117215890D01*
X67481392Y-117414617D01*
X67621081Y-117596661D01*
X67621089Y-117596670D01*
X67783330Y-117758911D01*
X67783338Y-117758918D01*
X67965382Y-117898607D01*
X67965385Y-117898608D01*
X67965388Y-117898611D01*
X68164112Y-118013344D01*
X68164117Y-118013346D01*
X68164123Y-118013349D01*
X68225290Y-118038685D01*
X68376113Y-118101158D01*
X68597762Y-118160548D01*
X68825266Y-118190500D01*
X68825273Y-118190500D01*
X69054727Y-118190500D01*
X69054734Y-118190500D01*
X69282238Y-118160548D01*
X69503887Y-118101158D01*
X69715888Y-118013344D01*
X69914612Y-117898611D01*
X70096661Y-117758919D01*
X70096665Y-117758914D01*
X70096670Y-117758911D01*
X70258911Y-117596670D01*
X70258914Y-117596665D01*
X70258919Y-117596661D01*
X70398611Y-117414612D01*
X70513344Y-117215888D01*
X70601158Y-117003887D01*
X70660548Y-116782238D01*
X70690500Y-116554734D01*
X70690500Y-116325266D01*
X70660548Y-116097762D01*
X70601158Y-115876113D01*
X70551190Y-115755480D01*
X70513349Y-115664123D01*
X70513346Y-115664117D01*
X70513344Y-115664112D01*
X70398611Y-115465388D01*
X70398608Y-115465385D01*
X70398607Y-115465382D01*
X70258918Y-115283338D01*
X70258911Y-115283330D01*
X70096670Y-115121089D01*
X70096661Y-115121081D01*
X69914617Y-114981392D01*
X69715890Y-114866657D01*
X69715876Y-114866650D01*
X69503887Y-114778842D01*
X69491489Y-114775520D01*
X69282238Y-114719452D01*
X69244215Y-114714446D01*
X69054741Y-114689500D01*
X69054734Y-114689500D01*
X68825266Y-114689500D01*
X68825258Y-114689500D01*
X68608715Y-114718009D01*
X68597762Y-114719452D01*
X68504076Y-114744554D01*
X68376112Y-114778842D01*
X68164123Y-114866650D01*
X68164109Y-114866657D01*
X67965382Y-114981392D01*
X67783338Y-115121081D01*
X67621081Y-115283338D01*
X67481392Y-115465382D01*
X67366657Y-115664109D01*
X67366650Y-115664123D01*
X67278842Y-115876112D01*
X67219453Y-116097759D01*
X67219451Y-116097770D01*
X67189500Y-116325258D01*
X35000500Y-116325258D01*
X35000500Y-30881902D01*
X35999500Y-30881902D01*
X35999500Y-108618097D01*
X36036446Y-108851368D01*
X36109433Y-109075996D01*
X36216657Y-109286434D01*
X36355484Y-109477511D01*
X36355485Y-109477513D01*
X36535385Y-109657413D01*
X36642490Y-109764518D01*
X36764343Y-109853049D01*
X36833567Y-109903343D01*
X36932991Y-109954002D01*
X37044003Y-110010566D01*
X37044005Y-110010566D01*
X37044008Y-110010568D01*
X37164412Y-110049689D01*
X37268631Y-110083553D01*
X37501903Y-110120500D01*
X37501908Y-110120500D01*
X67279668Y-110120500D01*
X67346707Y-110140185D01*
X67355153Y-110146123D01*
X67356198Y-110146925D01*
X67583299Y-110278041D01*
X67583309Y-110278046D01*
X67825571Y-110378394D01*
X67825581Y-110378398D01*
X68078884Y-110446270D01*
X68327188Y-110478960D01*
X68338864Y-110480498D01*
X68338880Y-110480500D01*
X68338887Y-110480500D01*
X68601113Y-110480500D01*
X68601120Y-110480500D01*
X68861116Y-110446270D01*
X69114419Y-110378398D01*
X69356697Y-110278043D01*
X69583803Y-110146924D01*
X69791851Y-109987282D01*
X69791855Y-109987277D01*
X69791860Y-109987274D01*
X69977274Y-109801860D01*
X69977277Y-109801855D01*
X69977282Y-109801851D01*
X70136924Y-109593803D01*
X70268043Y-109366697D01*
X70368398Y-109124419D01*
X70436270Y-108871116D01*
X70470500Y-108611120D01*
X70470500Y-108348880D01*
X70436270Y-108088884D01*
X70368398Y-107835581D01*
X70368394Y-107835571D01*
X70268046Y-107593309D01*
X70268041Y-107593299D01*
X70136924Y-107366196D01*
X69977281Y-107158148D01*
X69977274Y-107158140D01*
X69791856Y-106972722D01*
X69791849Y-106972716D01*
X69747676Y-106938821D01*
X69706473Y-106882393D01*
X69702318Y-106812647D01*
X69722845Y-106767558D01*
X69752914Y-106726172D01*
X69860102Y-106515802D01*
X69933065Y-106291247D01*
X69970000Y-106058052D01*
X69970000Y-105821947D01*
X69933065Y-105588752D01*
X69860102Y-105364197D01*
X69752914Y-105153828D01*
X69722844Y-105112440D01*
X69699364Y-105046633D01*
X69715189Y-104978579D01*
X69747674Y-104941180D01*
X69791851Y-104907282D01*
X69791856Y-104907277D01*
X69977274Y-104721860D01*
X69977277Y-104721855D01*
X69977282Y-104721851D01*
X70136924Y-104513803D01*
X70268043Y-104286697D01*
X70368398Y-104044419D01*
X70436270Y-103791116D01*
X70470500Y-103531120D01*
X70470500Y-103268880D01*
X70436270Y-103008884D01*
X70368398Y-102755581D01*
X70368394Y-102755571D01*
X70268046Y-102513309D01*
X70268041Y-102513299D01*
X70136927Y-102286203D01*
X70136924Y-102286197D01*
X70074991Y-102205485D01*
X70049797Y-102140319D01*
X70063835Y-102071874D01*
X70074991Y-102054514D01*
X70136924Y-101973803D01*
X70268043Y-101746697D01*
X70368398Y-101504419D01*
X70436270Y-101251116D01*
X70470500Y-100991120D01*
X70470500Y-100728880D01*
X70436270Y-100468884D01*
X70368398Y-100215581D01*
X70368394Y-100215571D01*
X70268046Y-99973309D01*
X70268041Y-99973299D01*
X70136927Y-99746203D01*
X70136924Y-99746197D01*
X70074991Y-99665485D01*
X70049797Y-99600319D01*
X70063835Y-99531874D01*
X70074991Y-99514514D01*
X70136924Y-99433803D01*
X70268043Y-99206697D01*
X70368398Y-98964419D01*
X70436270Y-98711116D01*
X70470500Y-98451120D01*
X70470500Y-98188880D01*
X70436270Y-97928884D01*
X70368398Y-97675581D01*
X70320594Y-97560172D01*
X70268046Y-97433309D01*
X70268041Y-97433299D01*
X70136927Y-97206203D01*
X70136924Y-97206197D01*
X70074991Y-97125485D01*
X70049797Y-97060319D01*
X70063835Y-96991874D01*
X70074991Y-96974514D01*
X70136924Y-96893803D01*
X70268043Y-96666697D01*
X70368398Y-96424419D01*
X70436270Y-96171116D01*
X70470500Y-95911120D01*
X70470500Y-95648880D01*
X70436270Y-95388884D01*
X70368398Y-95135581D01*
X70368394Y-95135571D01*
X70268046Y-94893309D01*
X70268045Y-94893308D01*
X70268043Y-94893303D01*
X70252567Y-94866498D01*
X70236095Y-94798601D01*
X70258947Y-94732574D01*
X70313868Y-94689383D01*
X70359955Y-94680500D01*
X74289953Y-94680500D01*
X74356992Y-94700185D01*
X74377634Y-94716819D01*
X94299919Y-114639104D01*
X94333404Y-114700427D01*
X94328420Y-114770119D01*
X94286548Y-114826052D01*
X94221084Y-114850469D01*
X94164786Y-114841346D01*
X94013887Y-114778842D01*
X94001489Y-114775520D01*
X93792238Y-114719452D01*
X93754215Y-114714446D01*
X93564741Y-114689500D01*
X93564734Y-114689500D01*
X93335266Y-114689500D01*
X93335258Y-114689500D01*
X93118715Y-114718009D01*
X93107762Y-114719452D01*
X93014076Y-114744554D01*
X92886112Y-114778842D01*
X92674123Y-114866650D01*
X92674109Y-114866657D01*
X92475382Y-114981392D01*
X92293338Y-115121081D01*
X92131081Y-115283338D01*
X91991392Y-115465382D01*
X91876657Y-115664109D01*
X91876650Y-115664123D01*
X91788842Y-115876112D01*
X91729453Y-116097759D01*
X91729451Y-116097770D01*
X91699500Y-116325258D01*
X91699500Y-116554741D01*
X91724446Y-116744215D01*
X91729452Y-116782238D01*
X91788008Y-117000776D01*
X91788842Y-117003887D01*
X91876650Y-117215876D01*
X91876657Y-117215890D01*
X91991392Y-117414617D01*
X92131081Y-117596661D01*
X92131089Y-117596670D01*
X92293330Y-117758911D01*
X92293338Y-117758918D01*
X92475382Y-117898607D01*
X92475385Y-117898608D01*
X92475388Y-117898611D01*
X92674112Y-118013344D01*
X92674117Y-118013346D01*
X92674123Y-118013349D01*
X92735290Y-118038685D01*
X92886113Y-118101158D01*
X93107762Y-118160548D01*
X93335266Y-118190500D01*
X93335273Y-118190500D01*
X93564727Y-118190500D01*
X93564734Y-118190500D01*
X93792238Y-118160548D01*
X94013887Y-118101158D01*
X94225888Y-118013344D01*
X94424612Y-117898611D01*
X94606661Y-117758919D01*
X94606665Y-117758914D01*
X94606670Y-117758911D01*
X94768911Y-117596670D01*
X94768914Y-117596665D01*
X94768919Y-117596661D01*
X94908611Y-117414612D01*
X95023344Y-117215888D01*
X95111158Y-117003887D01*
X95170548Y-116782238D01*
X95200500Y-116554734D01*
X95200500Y-116325266D01*
X95170548Y-116097762D01*
X95111158Y-115876113D01*
X95048652Y-115725212D01*
X95041184Y-115655744D01*
X95072459Y-115593265D01*
X95132548Y-115557613D01*
X95202373Y-115560107D01*
X95250895Y-115590080D01*
X97663181Y-118002366D01*
X97696666Y-118063689D01*
X97699500Y-118090047D01*
X97699500Y-123102351D01*
X97731522Y-123304534D01*
X97794781Y-123499223D01*
X97887715Y-123681613D01*
X98008028Y-123847213D01*
X98152786Y-123991971D01*
X98307749Y-124104556D01*
X98318390Y-124112287D01*
X98409585Y-124158753D01*
X98500776Y-124205218D01*
X98500778Y-124205218D01*
X98500781Y-124205220D01*
X98598122Y-124236848D01*
X98695465Y-124268477D01*
X98796557Y-124284488D01*
X98897648Y-124300500D01*
X98897649Y-124300500D01*
X111602351Y-124300500D01*
X111602352Y-124300500D01*
X111804535Y-124268477D01*
X111901876Y-124236848D01*
X111999219Y-124205220D01*
X112090414Y-124158753D01*
X112181611Y-124112287D01*
X112347219Y-123991966D01*
X114460474Y-121878711D01*
X128349500Y-121878711D01*
X128349500Y-122121288D01*
X128381161Y-122361785D01*
X128443947Y-122596104D01*
X128471750Y-122663226D01*
X128536776Y-122820212D01*
X128658064Y-123030289D01*
X128658066Y-123030292D01*
X128658067Y-123030293D01*
X128805733Y-123222736D01*
X128805739Y-123222743D01*
X128977256Y-123394260D01*
X128977262Y-123394265D01*
X129169711Y-123541936D01*
X129379788Y-123663224D01*
X129603900Y-123756054D01*
X129838211Y-123818838D01*
X130018586Y-123842584D01*
X130078711Y-123850500D01*
X130078712Y-123850500D01*
X130321289Y-123850500D01*
X130369388Y-123844167D01*
X130561789Y-123818838D01*
X130796100Y-123756054D01*
X131020212Y-123663224D01*
X131230289Y-123541936D01*
X131422738Y-123394265D01*
X131594265Y-123222738D01*
X131741936Y-123030289D01*
X131863224Y-122820212D01*
X131956054Y-122596100D01*
X132018838Y-122361789D01*
X132050500Y-122121288D01*
X132050500Y-121878712D01*
X132018838Y-121638211D01*
X131956054Y-121403900D01*
X131863224Y-121179788D01*
X131741936Y-120969711D01*
X131594265Y-120777262D01*
X131594260Y-120777256D01*
X131422743Y-120605739D01*
X131422736Y-120605733D01*
X131230293Y-120458067D01*
X131230292Y-120458066D01*
X131230289Y-120458064D01*
X131020212Y-120336776D01*
X131020205Y-120336773D01*
X130796104Y-120243947D01*
X130561785Y-120181161D01*
X130321289Y-120149500D01*
X130321288Y-120149500D01*
X130078712Y-120149500D01*
X130078711Y-120149500D01*
X129838214Y-120181161D01*
X129603895Y-120243947D01*
X129379794Y-120336773D01*
X129379785Y-120336777D01*
X129169706Y-120458067D01*
X128977263Y-120605733D01*
X128977256Y-120605739D01*
X128805739Y-120777256D01*
X128805733Y-120777263D01*
X128658067Y-120969706D01*
X128536777Y-121179785D01*
X128536773Y-121179794D01*
X128443947Y-121403895D01*
X128381161Y-121638214D01*
X128349500Y-121878711D01*
X114460474Y-121878711D01*
X119937883Y-116401302D01*
X121746000Y-116401302D01*
X121746000Y-116598697D01*
X121776876Y-116793646D01*
X121837873Y-116981373D01*
X121927483Y-117157239D01*
X121953457Y-117192988D01*
X121953457Y-117192989D01*
X122517037Y-116629409D01*
X122534075Y-116692993D01*
X122599901Y-116807007D01*
X122692993Y-116900099D01*
X122807007Y-116965925D01*
X122870590Y-116982962D01*
X122307009Y-117546541D01*
X122307010Y-117546542D01*
X122342755Y-117572512D01*
X122342768Y-117572520D01*
X122518626Y-117662126D01*
X122706353Y-117723123D01*
X122901303Y-117754000D01*
X123098697Y-117754000D01*
X123293646Y-117723123D01*
X123481373Y-117662126D01*
X123657241Y-117572516D01*
X123692988Y-117546543D01*
X123692988Y-117546541D01*
X123129410Y-116982962D01*
X123192993Y-116965925D01*
X123307007Y-116900099D01*
X123400099Y-116807007D01*
X123465925Y-116692993D01*
X123482962Y-116629409D01*
X124046541Y-117192988D01*
X124046543Y-117192988D01*
X124072516Y-117157241D01*
X124162126Y-116981373D01*
X124223123Y-116793646D01*
X124254000Y-116598697D01*
X124254000Y-116401302D01*
X124223123Y-116206353D01*
X124162126Y-116018626D01*
X124072520Y-115842768D01*
X124072512Y-115842755D01*
X124046542Y-115807010D01*
X124046541Y-115807009D01*
X123482962Y-116370589D01*
X123465925Y-116307007D01*
X123400099Y-116192993D01*
X123307007Y-116099901D01*
X123192993Y-116034075D01*
X123129409Y-116017037D01*
X123692989Y-115453457D01*
X123657239Y-115427483D01*
X123481373Y-115337873D01*
X123293646Y-115276876D01*
X123098697Y-115246000D01*
X122901303Y-115246000D01*
X122706353Y-115276876D01*
X122518626Y-115337873D01*
X122342762Y-115427482D01*
X122342760Y-115427483D01*
X122307010Y-115453456D01*
X122307010Y-115453457D01*
X122870591Y-116017037D01*
X122807007Y-116034075D01*
X122692993Y-116099901D01*
X122599901Y-116192993D01*
X122534075Y-116307007D01*
X122517037Y-116370590D01*
X121953457Y-115807010D01*
X121953456Y-115807010D01*
X121927483Y-115842760D01*
X121927482Y-115842762D01*
X121837873Y-116018626D01*
X121776876Y-116206353D01*
X121746000Y-116401302D01*
X119937883Y-116401302D01*
X122991966Y-113347219D01*
X123112286Y-113181611D01*
X123204567Y-113000500D01*
X123204568Y-113000501D01*
X123204581Y-113000470D01*
X123205220Y-112999219D01*
X123268477Y-112804534D01*
X123300500Y-112602352D01*
X123300500Y-97560172D01*
X126604500Y-97560172D01*
X126604500Y-97779828D01*
X126638862Y-97996780D01*
X126701281Y-98188886D01*
X126706741Y-98205688D01*
X126806464Y-98401404D01*
X126935566Y-98579101D01*
X127090898Y-98734433D01*
X127257181Y-98855242D01*
X127268599Y-98863538D01*
X127464314Y-98963260D01*
X127673220Y-99031138D01*
X127890172Y-99065500D01*
X127890173Y-99065500D01*
X128109827Y-99065500D01*
X128109828Y-99065500D01*
X128326780Y-99031138D01*
X128535686Y-98963260D01*
X128731401Y-98863538D01*
X128831174Y-98791049D01*
X128909101Y-98734433D01*
X128909103Y-98734430D01*
X128909107Y-98734428D01*
X129064428Y-98579107D01*
X129064430Y-98579103D01*
X129064433Y-98579101D01*
X129157420Y-98451113D01*
X129193538Y-98401401D01*
X129293260Y-98205686D01*
X129361138Y-97996780D01*
X129395500Y-97779828D01*
X129395500Y-97560172D01*
X129361138Y-97343220D01*
X129293260Y-97134314D01*
X129193538Y-96938599D01*
X129185242Y-96927181D01*
X129064433Y-96760898D01*
X128909101Y-96605566D01*
X128731404Y-96476464D01*
X128731403Y-96476463D01*
X128731401Y-96476462D01*
X128535686Y-96376740D01*
X128326780Y-96308862D01*
X128326778Y-96308861D01*
X128326777Y-96308861D01*
X128160120Y-96282465D01*
X128109828Y-96274500D01*
X127890172Y-96274500D01*
X127839879Y-96282465D01*
X127673223Y-96308861D01*
X127464311Y-96376741D01*
X127268595Y-96476464D01*
X127090898Y-96605566D01*
X126935566Y-96760898D01*
X126806464Y-96938595D01*
X126706741Y-97134311D01*
X126638861Y-97343223D01*
X126624595Y-97433299D01*
X126604500Y-97560172D01*
X123300500Y-97560172D01*
X123300500Y-70590172D01*
X126604500Y-70590172D01*
X126604500Y-70809827D01*
X126636236Y-71010204D01*
X126638862Y-71026780D01*
X126706740Y-71235686D01*
X126737540Y-71296135D01*
X126806464Y-71431404D01*
X126935566Y-71609101D01*
X127090898Y-71764433D01*
X127257181Y-71885242D01*
X127268599Y-71893538D01*
X127464314Y-71993260D01*
X127673220Y-72061138D01*
X127890172Y-72095500D01*
X127890173Y-72095500D01*
X128109827Y-72095500D01*
X128109828Y-72095500D01*
X128326780Y-72061138D01*
X128535686Y-71993260D01*
X128731401Y-71893538D01*
X128831174Y-71821049D01*
X128909101Y-71764433D01*
X128909103Y-71764430D01*
X128909107Y-71764428D01*
X129064428Y-71609107D01*
X129064430Y-71609103D01*
X129064433Y-71609101D01*
X129121049Y-71531174D01*
X129193538Y-71431401D01*
X129293260Y-71235686D01*
X129361138Y-71026780D01*
X129395500Y-70809828D01*
X129395500Y-70590172D01*
X129361138Y-70373220D01*
X129293260Y-70164314D01*
X129193538Y-69968599D01*
X129185242Y-69957181D01*
X129064433Y-69790898D01*
X128909101Y-69635566D01*
X128731404Y-69506464D01*
X128731403Y-69506463D01*
X128731401Y-69506462D01*
X128535686Y-69406740D01*
X128326780Y-69338862D01*
X128326778Y-69338861D01*
X128326777Y-69338861D01*
X128160120Y-69312465D01*
X128109828Y-69304500D01*
X127890172Y-69304500D01*
X127839879Y-69312465D01*
X127673223Y-69338861D01*
X127464311Y-69406741D01*
X127268595Y-69506464D01*
X127090898Y-69635566D01*
X126935566Y-69790898D01*
X126806464Y-69968595D01*
X126706741Y-70164311D01*
X126638861Y-70373223D01*
X126604500Y-70590172D01*
X123300500Y-70590172D01*
X123300500Y-44607487D01*
X123300501Y-44607462D01*
X123300501Y-44397650D01*
X123298807Y-44386954D01*
X123268477Y-44195466D01*
X123268476Y-44195462D01*
X123268476Y-44195461D01*
X123205222Y-44000784D01*
X123205221Y-44000781D01*
X123126856Y-43846983D01*
X123112287Y-43818390D01*
X123038374Y-43716657D01*
X123038373Y-43716655D01*
X123038372Y-43716653D01*
X122991969Y-43652785D01*
X122991968Y-43652784D01*
X122991966Y-43652781D01*
X122847219Y-43508034D01*
X122847218Y-43508033D01*
X122844107Y-43504922D01*
X122844092Y-43504908D01*
X110347221Y-31008036D01*
X110347220Y-31008035D01*
X110347219Y-31008034D01*
X110181611Y-30887713D01*
X110090414Y-30841246D01*
X110090412Y-30841245D01*
X109999223Y-30794781D01*
X109952515Y-30779604D01*
X109901876Y-30763151D01*
X109878003Y-30755394D01*
X109804535Y-30731522D01*
X109629995Y-30703878D01*
X109602352Y-30699500D01*
X90102352Y-30699500D01*
X89897648Y-30699500D01*
X89830253Y-30710174D01*
X89695463Y-30731523D01*
X89598123Y-30763150D01*
X89598123Y-30763151D01*
X89545352Y-30780297D01*
X89500774Y-30794782D01*
X89409584Y-30841245D01*
X89409585Y-30841246D01*
X89318388Y-30887713D01*
X89152778Y-31008036D01*
X85608036Y-34552778D01*
X85608031Y-34552784D01*
X85487716Y-34718383D01*
X85487711Y-34718392D01*
X85486785Y-34720209D01*
X85486749Y-34720279D01*
X85486494Y-34720782D01*
X85394780Y-34900781D01*
X85394780Y-34900782D01*
X85390455Y-34914090D01*
X85390450Y-34914102D01*
X85331522Y-35095467D01*
X85331522Y-35095468D01*
X85311404Y-35222490D01*
X85299500Y-35297648D01*
X85299500Y-42964953D01*
X85279815Y-43031992D01*
X85263181Y-43052634D01*
X77347634Y-50968181D01*
X77286311Y-51001666D01*
X77259953Y-51004500D01*
X77231989Y-51004500D01*
X77231983Y-51004500D01*
X77231979Y-51004501D01*
X76997989Y-51035306D01*
X76770006Y-51096394D01*
X76551954Y-51186714D01*
X76551943Y-51186719D01*
X76371024Y-51291174D01*
X76347554Y-51304725D01*
X76347545Y-51304730D01*
X76157080Y-51450879D01*
X76156191Y-51449720D01*
X76098338Y-51476537D01*
X76029124Y-51466983D01*
X76003298Y-51450385D01*
X76002920Y-51450879D01*
X75812454Y-51304730D01*
X75812453Y-51304729D01*
X75812450Y-51304727D01*
X75730957Y-51257677D01*
X75608056Y-51186719D01*
X75608045Y-51186714D01*
X75389993Y-51096394D01*
X75291131Y-51069904D01*
X75162014Y-51035307D01*
X75162013Y-51035306D01*
X75162010Y-51035306D01*
X74928020Y-51004501D01*
X74928017Y-51004500D01*
X74928011Y-51004500D01*
X74691989Y-51004500D01*
X74691983Y-51004500D01*
X74691979Y-51004501D01*
X74457989Y-51035306D01*
X74230006Y-51096394D01*
X74011954Y-51186714D01*
X74011943Y-51186719D01*
X73831024Y-51291174D01*
X73807554Y-51304725D01*
X73807545Y-51304730D01*
X73620302Y-51448406D01*
X73620295Y-51448412D01*
X73453412Y-51615295D01*
X73453406Y-51615302D01*
X73309730Y-51802545D01*
X73191719Y-52006943D01*
X73191714Y-52006954D01*
X73101392Y-52225010D01*
X73101391Y-52225013D01*
X73072601Y-52332457D01*
X73040508Y-52388043D01*
X72670000Y-52758551D01*
X72670000Y-52752339D01*
X72642741Y-52650606D01*
X72590080Y-52559394D01*
X72515606Y-52484920D01*
X72424394Y-52432259D01*
X72322661Y-52405000D01*
X72316446Y-52405000D01*
X72995922Y-51725524D01*
X72995921Y-51725523D01*
X72951359Y-51693147D01*
X72951350Y-51693141D01*
X72769031Y-51600244D01*
X72574417Y-51537009D01*
X72372317Y-51505000D01*
X72167683Y-51505000D01*
X71965582Y-51537009D01*
X71770968Y-51600244D01*
X71588644Y-51693143D01*
X71544077Y-51725523D01*
X71544077Y-51725524D01*
X72223554Y-52405000D01*
X72217339Y-52405000D01*
X72115606Y-52432259D01*
X72024394Y-52484920D01*
X71949920Y-52559394D01*
X71897259Y-52650606D01*
X71870000Y-52752339D01*
X71870000Y-52758553D01*
X71190524Y-52079077D01*
X71190523Y-52079077D01*
X71158143Y-52123644D01*
X71110485Y-52217180D01*
X71062510Y-52267976D01*
X70994689Y-52284771D01*
X70928554Y-52262233D01*
X70889515Y-52217180D01*
X70841859Y-52123650D01*
X70809474Y-52079077D01*
X70809474Y-52079076D01*
X70130000Y-52758551D01*
X70130000Y-52752339D01*
X70102741Y-52650606D01*
X70050080Y-52559394D01*
X69975606Y-52484920D01*
X69884394Y-52432259D01*
X69782661Y-52405000D01*
X69776446Y-52405000D01*
X70455922Y-51725524D01*
X70455921Y-51725523D01*
X70411359Y-51693147D01*
X70411350Y-51693141D01*
X70229031Y-51600244D01*
X70034417Y-51537009D01*
X69832317Y-51505000D01*
X69627683Y-51505000D01*
X69425582Y-51537009D01*
X69230968Y-51600244D01*
X69048644Y-51693143D01*
X69004077Y-51725523D01*
X69004077Y-51725524D01*
X69683554Y-52405000D01*
X69677339Y-52405000D01*
X69575606Y-52432259D01*
X69484394Y-52484920D01*
X69409920Y-52559394D01*
X69357259Y-52650606D01*
X69330000Y-52752339D01*
X69330000Y-52758553D01*
X68959490Y-52388043D01*
X68927397Y-52332457D01*
X68898606Y-52225007D01*
X68864611Y-52142936D01*
X68808288Y-52006959D01*
X68808283Y-52006950D01*
X68808279Y-52006943D01*
X68690273Y-51802550D01*
X68546592Y-51615301D01*
X68546587Y-51615295D01*
X68379704Y-51448412D01*
X68379697Y-51448406D01*
X68192454Y-51304730D01*
X68192453Y-51304729D01*
X68192450Y-51304727D01*
X68110957Y-51257677D01*
X67988056Y-51186719D01*
X67988045Y-51186714D01*
X67769993Y-51096394D01*
X67671131Y-51069904D01*
X67542014Y-51035307D01*
X67542013Y-51035306D01*
X67542010Y-51035306D01*
X67308020Y-51004501D01*
X67308017Y-51004500D01*
X67308011Y-51004500D01*
X67071989Y-51004500D01*
X67071983Y-51004500D01*
X67071979Y-51004501D01*
X66837989Y-51035306D01*
X66610006Y-51096394D01*
X66391954Y-51186714D01*
X66391943Y-51186719D01*
X66211024Y-51291174D01*
X66187554Y-51304725D01*
X66187545Y-51304730D01*
X65997080Y-51450879D01*
X65996191Y-51449720D01*
X65938338Y-51476537D01*
X65869124Y-51466983D01*
X65843298Y-51450385D01*
X65842920Y-51450879D01*
X65652454Y-51304730D01*
X65652453Y-51304729D01*
X65652450Y-51304727D01*
X65570957Y-51257677D01*
X65448056Y-51186719D01*
X65448045Y-51186714D01*
X65229993Y-51096394D01*
X65131131Y-51069904D01*
X65002014Y-51035307D01*
X65002013Y-51035306D01*
X65002010Y-51035306D01*
X64768020Y-51004501D01*
X64768017Y-51004500D01*
X64768011Y-51004500D01*
X64531989Y-51004500D01*
X64531983Y-51004500D01*
X64531979Y-51004501D01*
X64297989Y-51035306D01*
X64070006Y-51096394D01*
X63851954Y-51186714D01*
X63851943Y-51186719D01*
X63647552Y-51304725D01*
X63637992Y-51312060D01*
X63572821Y-51337249D01*
X63504377Y-51323205D01*
X63474832Y-51301359D01*
X63464657Y-51291184D01*
X63464654Y-51291181D01*
X63464650Y-51291178D01*
X63464645Y-51291174D01*
X63279632Y-51162997D01*
X63279630Y-51162995D01*
X63279626Y-51162993D01*
X63074683Y-51069904D01*
X63074681Y-51069903D01*
X63074678Y-51069902D01*
X62856420Y-51014905D01*
X62856413Y-51014904D01*
X62812347Y-51011436D01*
X62724217Y-51004500D01*
X62724215Y-51004500D01*
X61495791Y-51004500D01*
X61495776Y-51004501D01*
X61363586Y-51014904D01*
X61363579Y-51014905D01*
X61145321Y-51069902D01*
X61145318Y-51069903D01*
X60940377Y-51162991D01*
X60940367Y-51162997D01*
X60755354Y-51291174D01*
X60755342Y-51291184D01*
X60596184Y-51450342D01*
X60596174Y-51450354D01*
X60467997Y-51635367D01*
X60467991Y-51635377D01*
X60374903Y-51840318D01*
X60374902Y-51840321D01*
X60319905Y-52058579D01*
X60319904Y-52058586D01*
X60309500Y-52190777D01*
X60309500Y-52714953D01*
X60289815Y-52781992D01*
X60273181Y-52802634D01*
X55008036Y-58067778D01*
X55008031Y-58067784D01*
X54887716Y-58233384D01*
X54887708Y-58233396D01*
X54867588Y-58272885D01*
X54867545Y-58272971D01*
X54867249Y-58273553D01*
X54794780Y-58415781D01*
X54794780Y-58415782D01*
X54790500Y-58428953D01*
X54790496Y-58428962D01*
X54731522Y-58610467D01*
X54731522Y-58610468D01*
X54699500Y-58812648D01*
X54699500Y-85060953D01*
X54679815Y-85127992D01*
X54627011Y-85173747D01*
X54557853Y-85183691D01*
X54494297Y-85154666D01*
X54487819Y-85148634D01*
X50836819Y-81497634D01*
X50803334Y-81436311D01*
X50800500Y-81409953D01*
X50800500Y-41424500D01*
X50820185Y-41357461D01*
X50872989Y-41311706D01*
X50924500Y-41300500D01*
X53837351Y-41300500D01*
X53837352Y-41300500D01*
X54039535Y-41268477D01*
X54136876Y-41236848D01*
X54234219Y-41205220D01*
X54325414Y-41158753D01*
X54416611Y-41112287D01*
X54428271Y-41103815D01*
X54494075Y-41080334D01*
X54562129Y-41096156D01*
X54610826Y-41146260D01*
X54624177Y-41194575D01*
X54624644Y-41194525D01*
X54624949Y-41197369D01*
X54624981Y-41197482D01*
X54625000Y-41197836D01*
X54631401Y-41257372D01*
X54631403Y-41257379D01*
X54681645Y-41392086D01*
X54681649Y-41392093D01*
X54767809Y-41507187D01*
X54767812Y-41507190D01*
X54882906Y-41593350D01*
X54882913Y-41593354D01*
X55017620Y-41643596D01*
X55017627Y-41643598D01*
X55077155Y-41649999D01*
X55077172Y-41650000D01*
X55725000Y-41650000D01*
X55725000Y-40733012D01*
X55782007Y-40765925D01*
X55909174Y-40800000D01*
X56040826Y-40800000D01*
X56167993Y-40765925D01*
X56225000Y-40733012D01*
X56225000Y-41650000D01*
X56872828Y-41650000D01*
X56872844Y-41649999D01*
X56932372Y-41643598D01*
X56932379Y-41643596D01*
X57067086Y-41593354D01*
X57067093Y-41593350D01*
X57182187Y-41507190D01*
X57182190Y-41507187D01*
X57268350Y-41392093D01*
X57268354Y-41392086D01*
X57318596Y-41257379D01*
X57318598Y-41257372D01*
X57324999Y-41197844D01*
X57325000Y-41197827D01*
X57325000Y-40550000D01*
X56408012Y-40550000D01*
X56440925Y-40492993D01*
X56475000Y-40365826D01*
X56475000Y-40234174D01*
X56440925Y-40107007D01*
X56408012Y-40050000D01*
X57325000Y-40050000D01*
X57325000Y-39402172D01*
X57324999Y-39402155D01*
X57318598Y-39342627D01*
X57318596Y-39342620D01*
X57265254Y-39199601D01*
X57266781Y-39199031D01*
X57254100Y-39140735D01*
X57278516Y-39075270D01*
X57290090Y-39061912D01*
X57369265Y-38982738D01*
X57516936Y-38790289D01*
X57638224Y-38580212D01*
X57731054Y-38356100D01*
X57793838Y-38121789D01*
X57825500Y-37881288D01*
X57825500Y-37638712D01*
X57793838Y-37398211D01*
X57731054Y-37163900D01*
X57638224Y-36939788D01*
X57516936Y-36729711D01*
X57390922Y-36565486D01*
X57365728Y-36500317D01*
X57379766Y-36431872D01*
X57390922Y-36414514D01*
X57392099Y-36412979D01*
X57516936Y-36250289D01*
X57638224Y-36040212D01*
X57731054Y-35816100D01*
X57793838Y-35581789D01*
X57825500Y-35341288D01*
X57825500Y-35098712D01*
X57793838Y-34858211D01*
X57731054Y-34623900D01*
X57638224Y-34399788D01*
X57619004Y-34366499D01*
X57602532Y-34298600D01*
X57625384Y-34232573D01*
X57680305Y-34189383D01*
X57726392Y-34180500D01*
X60773000Y-34180500D01*
X60840039Y-34200185D01*
X60885794Y-34252989D01*
X60897000Y-34304500D01*
X60897000Y-43800346D01*
X60877315Y-43867385D01*
X60860681Y-43888027D01*
X60753412Y-43995295D01*
X60753406Y-43995302D01*
X60609730Y-44182545D01*
X60491719Y-44386943D01*
X60491714Y-44386954D01*
X60401394Y-44605006D01*
X60340306Y-44832989D01*
X60309501Y-45066979D01*
X60309500Y-45066995D01*
X60309500Y-45303004D01*
X60309501Y-45303020D01*
X60340306Y-45537010D01*
X60401394Y-45764993D01*
X60491714Y-45983045D01*
X60491719Y-45983056D01*
X60562677Y-46105957D01*
X60609727Y-46187450D01*
X60609729Y-46187453D01*
X60609730Y-46187454D01*
X60753406Y-46374697D01*
X60753412Y-46374704D01*
X60920295Y-46541587D01*
X60920301Y-46541592D01*
X61107550Y-46685273D01*
X61238918Y-46761118D01*
X61311943Y-46803280D01*
X61311948Y-46803282D01*
X61311951Y-46803284D01*
X61530007Y-46893606D01*
X61757986Y-46954693D01*
X61991989Y-46985500D01*
X61991996Y-46985500D01*
X62228004Y-46985500D01*
X62228011Y-46985500D01*
X62462014Y-46954693D01*
X62689993Y-46893606D01*
X62908049Y-46803284D01*
X63112450Y-46685273D01*
X63299698Y-46541593D01*
X63302920Y-46539121D01*
X63303814Y-46540286D01*
X63361619Y-46513469D01*
X63430835Y-46522998D01*
X63456697Y-46539619D01*
X63457080Y-46539121D01*
X63460302Y-46541593D01*
X63647550Y-46685273D01*
X63778918Y-46761118D01*
X63851943Y-46803280D01*
X63851948Y-46803282D01*
X63851951Y-46803284D01*
X64070007Y-46893606D01*
X64297986Y-46954693D01*
X64531989Y-46985500D01*
X64531996Y-46985500D01*
X64768004Y-46985500D01*
X64768011Y-46985500D01*
X65002014Y-46954693D01*
X65229993Y-46893606D01*
X65448049Y-46803284D01*
X65652450Y-46685273D01*
X65839698Y-46541593D01*
X65842920Y-46539121D01*
X65843814Y-46540286D01*
X65901619Y-46513469D01*
X65970835Y-46522998D01*
X65996697Y-46539619D01*
X65997080Y-46539121D01*
X66000302Y-46541593D01*
X66187550Y-46685273D01*
X66318918Y-46761118D01*
X66391943Y-46803280D01*
X66391948Y-46803282D01*
X66391951Y-46803284D01*
X66610007Y-46893606D01*
X66837986Y-46954693D01*
X67071989Y-46985500D01*
X67071996Y-46985500D01*
X67308004Y-46985500D01*
X67308011Y-46985500D01*
X67542014Y-46954693D01*
X67769993Y-46893606D01*
X67988049Y-46803284D01*
X68192450Y-46685273D01*
X68379699Y-46541592D01*
X68546592Y-46374699D01*
X68690273Y-46187450D01*
X68808284Y-45983049D01*
X68898606Y-45764993D01*
X68927398Y-45657538D01*
X68959490Y-45601955D01*
X69330000Y-45231445D01*
X69330000Y-45237661D01*
X69357259Y-45339394D01*
X69409920Y-45430606D01*
X69484394Y-45505080D01*
X69575606Y-45557741D01*
X69677339Y-45585000D01*
X69683553Y-45585000D01*
X69004076Y-46264474D01*
X69048650Y-46296859D01*
X69230968Y-46389755D01*
X69425582Y-46452990D01*
X69627683Y-46485000D01*
X69832317Y-46485000D01*
X70034417Y-46452990D01*
X70229031Y-46389755D01*
X70411349Y-46296859D01*
X70455921Y-46264474D01*
X69776447Y-45585000D01*
X69782661Y-45585000D01*
X69884394Y-45557741D01*
X69975606Y-45505080D01*
X70050080Y-45430606D01*
X70102741Y-45339394D01*
X70130000Y-45237661D01*
X70130000Y-45231447D01*
X70809474Y-45910921D01*
X70841861Y-45866347D01*
X70841861Y-45866346D01*
X70889515Y-45772820D01*
X70937489Y-45722024D01*
X71005310Y-45705228D01*
X71071445Y-45727765D01*
X71110485Y-45772819D01*
X71158141Y-45866350D01*
X71158147Y-45866359D01*
X71190523Y-45910921D01*
X71190524Y-45910922D01*
X71870000Y-45231446D01*
X71870000Y-45237661D01*
X71897259Y-45339394D01*
X71949920Y-45430606D01*
X72024394Y-45505080D01*
X72115606Y-45557741D01*
X72217339Y-45585000D01*
X72223553Y-45585000D01*
X71544076Y-46264474D01*
X71588650Y-46296859D01*
X71770968Y-46389755D01*
X71965582Y-46452990D01*
X72167683Y-46485000D01*
X72372317Y-46485000D01*
X72574417Y-46452990D01*
X72769031Y-46389755D01*
X72951349Y-46296859D01*
X72995921Y-46264474D01*
X72316447Y-45585000D01*
X72322661Y-45585000D01*
X72424394Y-45557741D01*
X72515606Y-45505080D01*
X72590080Y-45430606D01*
X72642741Y-45339394D01*
X72670000Y-45237661D01*
X72670000Y-45231447D01*
X73040508Y-45601955D01*
X73072602Y-45657541D01*
X73089880Y-45722024D01*
X73101395Y-45764995D01*
X73191714Y-45983045D01*
X73191719Y-45983056D01*
X73262677Y-46105957D01*
X73309727Y-46187450D01*
X73309729Y-46187453D01*
X73309730Y-46187454D01*
X73453406Y-46374697D01*
X73453412Y-46374704D01*
X73620295Y-46541587D01*
X73620301Y-46541592D01*
X73807550Y-46685273D01*
X73938918Y-46761118D01*
X74011943Y-46803280D01*
X74011948Y-46803282D01*
X74011951Y-46803284D01*
X74230007Y-46893606D01*
X74457986Y-46954693D01*
X74691989Y-46985500D01*
X74691996Y-46985500D01*
X74928004Y-46985500D01*
X74928011Y-46985500D01*
X75162014Y-46954693D01*
X75389993Y-46893606D01*
X75608049Y-46803284D01*
X75812450Y-46685273D01*
X75999698Y-46541593D01*
X76002920Y-46539121D01*
X76003814Y-46540286D01*
X76061619Y-46513469D01*
X76130835Y-46522998D01*
X76156697Y-46539619D01*
X76157080Y-46539121D01*
X76160302Y-46541593D01*
X76347550Y-46685273D01*
X76478918Y-46761118D01*
X76551943Y-46803280D01*
X76551948Y-46803282D01*
X76551951Y-46803284D01*
X76770007Y-46893606D01*
X76997986Y-46954693D01*
X77231989Y-46985500D01*
X77231996Y-46985500D01*
X77468004Y-46985500D01*
X77468011Y-46985500D01*
X77702014Y-46954693D01*
X77929993Y-46893606D01*
X78148049Y-46803284D01*
X78352450Y-46685273D01*
X78539698Y-46541593D01*
X78542920Y-46539121D01*
X78543814Y-46540286D01*
X78601619Y-46513469D01*
X78670835Y-46522998D01*
X78696697Y-46539619D01*
X78697080Y-46539121D01*
X78700302Y-46541593D01*
X78887550Y-46685273D01*
X79018918Y-46761118D01*
X79091943Y-46803280D01*
X79091948Y-46803282D01*
X79091951Y-46803284D01*
X79310007Y-46893606D01*
X79537986Y-46954693D01*
X79771989Y-46985500D01*
X79771996Y-46985500D01*
X80008004Y-46985500D01*
X80008011Y-46985500D01*
X80242014Y-46954693D01*
X80469993Y-46893606D01*
X80688049Y-46803284D01*
X80892450Y-46685273D01*
X81079699Y-46541592D01*
X81246592Y-46374699D01*
X81390273Y-46187450D01*
X81508284Y-45983049D01*
X81598606Y-45764993D01*
X81659693Y-45537014D01*
X81690500Y-45303011D01*
X81690500Y-45066989D01*
X81659693Y-44832986D01*
X81598606Y-44605007D01*
X81508284Y-44386951D01*
X81508282Y-44386948D01*
X81508280Y-44386943D01*
X81450250Y-44286433D01*
X81390273Y-44182550D01*
X81246592Y-43995301D01*
X81246587Y-43995295D01*
X81079704Y-43828412D01*
X81079697Y-43828406D01*
X80892454Y-43684730D01*
X80892453Y-43684729D01*
X80892450Y-43684727D01*
X80810957Y-43637677D01*
X80688056Y-43566719D01*
X80688045Y-43566714D01*
X80469993Y-43476394D01*
X80242010Y-43415306D01*
X80008020Y-43384501D01*
X80008017Y-43384500D01*
X80008011Y-43384500D01*
X79771989Y-43384500D01*
X79771983Y-43384500D01*
X79771979Y-43384501D01*
X79537989Y-43415306D01*
X79310006Y-43476394D01*
X79091954Y-43566714D01*
X79091943Y-43566719D01*
X78887545Y-43684730D01*
X78697080Y-43830879D01*
X78696191Y-43829720D01*
X78638338Y-43856537D01*
X78569124Y-43846983D01*
X78543298Y-43830385D01*
X78542920Y-43830879D01*
X78352454Y-43684730D01*
X78352453Y-43684729D01*
X78352450Y-43684727D01*
X78270957Y-43637677D01*
X78148056Y-43566719D01*
X78148045Y-43566714D01*
X77929993Y-43476394D01*
X77702010Y-43415306D01*
X77468020Y-43384501D01*
X77468017Y-43384500D01*
X77468011Y-43384500D01*
X77231989Y-43384500D01*
X77231983Y-43384500D01*
X77231979Y-43384501D01*
X76997989Y-43415306D01*
X76770006Y-43476394D01*
X76551954Y-43566714D01*
X76551943Y-43566719D01*
X76347545Y-43684730D01*
X76157080Y-43830879D01*
X76156191Y-43829720D01*
X76098338Y-43856537D01*
X76029124Y-43846983D01*
X76003298Y-43830385D01*
X76002920Y-43830879D01*
X75812454Y-43684730D01*
X75812453Y-43684729D01*
X75812450Y-43684727D01*
X75730957Y-43637677D01*
X75608056Y-43566719D01*
X75608045Y-43566714D01*
X75389993Y-43476394D01*
X75162010Y-43415306D01*
X74928020Y-43384501D01*
X74928017Y-43384500D01*
X74928011Y-43384500D01*
X74691989Y-43384500D01*
X74691983Y-43384500D01*
X74691979Y-43384501D01*
X74457989Y-43415306D01*
X74230006Y-43476394D01*
X74011954Y-43566714D01*
X74011943Y-43566719D01*
X73807545Y-43684730D01*
X73620302Y-43828406D01*
X73620295Y-43828412D01*
X73453412Y-43995295D01*
X73453406Y-43995302D01*
X73309730Y-44182545D01*
X73191719Y-44386943D01*
X73191714Y-44386954D01*
X73101392Y-44605010D01*
X73101391Y-44605013D01*
X73072601Y-44712457D01*
X73040508Y-44768043D01*
X72670000Y-45138551D01*
X72670000Y-45132339D01*
X72642741Y-45030606D01*
X72590080Y-44939394D01*
X72515606Y-44864920D01*
X72424394Y-44812259D01*
X72322661Y-44785000D01*
X72316446Y-44785000D01*
X72995922Y-44105524D01*
X72995921Y-44105523D01*
X72951359Y-44073147D01*
X72951350Y-44073141D01*
X72769031Y-43980244D01*
X72574417Y-43917009D01*
X72372317Y-43885000D01*
X72167683Y-43885000D01*
X71965582Y-43917009D01*
X71770968Y-43980244D01*
X71588644Y-44073143D01*
X71544077Y-44105523D01*
X71544077Y-44105524D01*
X72223554Y-44785000D01*
X72217339Y-44785000D01*
X72115606Y-44812259D01*
X72024394Y-44864920D01*
X71949920Y-44939394D01*
X71897259Y-45030606D01*
X71870000Y-45132339D01*
X71870000Y-45138553D01*
X71190524Y-44459077D01*
X71190523Y-44459077D01*
X71158143Y-44503644D01*
X71110485Y-44597180D01*
X71062510Y-44647976D01*
X70994689Y-44664771D01*
X70928554Y-44642233D01*
X70889515Y-44597180D01*
X70841859Y-44503650D01*
X70809474Y-44459077D01*
X70809474Y-44459076D01*
X70130000Y-45138551D01*
X70130000Y-45132339D01*
X70102741Y-45030606D01*
X70050080Y-44939394D01*
X69975606Y-44864920D01*
X69884394Y-44812259D01*
X69782661Y-44785000D01*
X69776446Y-44785000D01*
X70455922Y-44105524D01*
X70455921Y-44105523D01*
X70411359Y-44073147D01*
X70411350Y-44073141D01*
X70229031Y-43980244D01*
X70034417Y-43917009D01*
X69832317Y-43885000D01*
X69627683Y-43885000D01*
X69425582Y-43917009D01*
X69230968Y-43980244D01*
X69048644Y-44073143D01*
X69004077Y-44105523D01*
X69004077Y-44105524D01*
X69683554Y-44785000D01*
X69677339Y-44785000D01*
X69575606Y-44812259D01*
X69484394Y-44864920D01*
X69409920Y-44939394D01*
X69357259Y-45030606D01*
X69330000Y-45132339D01*
X69330000Y-45138553D01*
X68959490Y-44768043D01*
X68927397Y-44712457D01*
X68898606Y-44605007D01*
X68864611Y-44522936D01*
X68808288Y-44386959D01*
X68808283Y-44386950D01*
X68773735Y-44327111D01*
X68690273Y-44182550D01*
X68546592Y-43995301D01*
X68546587Y-43995295D01*
X68512288Y-43960996D01*
X68478803Y-43899673D01*
X68483787Y-43829981D01*
X68512286Y-43785636D01*
X74144517Y-38153407D01*
X74283343Y-37962330D01*
X74390568Y-37751889D01*
X74463553Y-37527265D01*
X74483993Y-37398211D01*
X74500500Y-37293994D01*
X74500500Y-30678711D01*
X82349500Y-30678711D01*
X82349500Y-30921288D01*
X82381161Y-31161785D01*
X82443947Y-31396104D01*
X82522277Y-31585208D01*
X82536776Y-31620212D01*
X82658064Y-31830289D01*
X82658066Y-31830292D01*
X82658067Y-31830293D01*
X82805733Y-32022736D01*
X82805739Y-32022743D01*
X82977256Y-32194260D01*
X82977262Y-32194265D01*
X83169711Y-32341936D01*
X83379788Y-32463224D01*
X83603900Y-32556054D01*
X83838211Y-32618838D01*
X84018586Y-32642584D01*
X84078711Y-32650500D01*
X84078712Y-32650500D01*
X84321289Y-32650500D01*
X84369388Y-32644167D01*
X84561789Y-32618838D01*
X84796100Y-32556054D01*
X85020212Y-32463224D01*
X85230289Y-32341936D01*
X85422738Y-32194265D01*
X85594265Y-32022738D01*
X85741936Y-31830289D01*
X85863224Y-31620212D01*
X85956054Y-31396100D01*
X86018838Y-31161789D01*
X86050500Y-30921288D01*
X86050500Y-30678712D01*
X86018838Y-30438211D01*
X85956054Y-30203900D01*
X85863224Y-29979788D01*
X85741936Y-29769711D01*
X85594265Y-29577262D01*
X85594260Y-29577256D01*
X85422743Y-29405739D01*
X85422736Y-29405733D01*
X85230293Y-29258067D01*
X85230292Y-29258066D01*
X85230289Y-29258064D01*
X85020212Y-29136776D01*
X85020205Y-29136773D01*
X84796104Y-29043947D01*
X84561785Y-28981161D01*
X84321289Y-28949500D01*
X84321288Y-28949500D01*
X84078712Y-28949500D01*
X84078711Y-28949500D01*
X83838214Y-28981161D01*
X83603895Y-29043947D01*
X83379794Y-29136773D01*
X83379785Y-29136777D01*
X83169706Y-29258067D01*
X82977263Y-29405733D01*
X82977256Y-29405739D01*
X82805739Y-29577256D01*
X82805733Y-29577263D01*
X82658067Y-29769706D01*
X82536777Y-29979785D01*
X82536773Y-29979794D01*
X82443947Y-30203895D01*
X82381161Y-30438214D01*
X82349500Y-30678711D01*
X74500500Y-30678711D01*
X74500500Y-28881902D01*
X74463553Y-28648631D01*
X74390566Y-28424003D01*
X74283342Y-28213566D01*
X74144517Y-28022490D01*
X73977510Y-27855483D01*
X73786433Y-27716657D01*
X73575996Y-27609433D01*
X73351368Y-27536446D01*
X73118097Y-27499500D01*
X73118092Y-27499500D01*
X39618092Y-27499500D01*
X39381908Y-27499500D01*
X39381903Y-27499500D01*
X39148634Y-27536446D01*
X38924005Y-27609433D01*
X38713565Y-27716657D01*
X38522488Y-27855484D01*
X36355484Y-30022488D01*
X36216657Y-30213565D01*
X36109433Y-30424003D01*
X36036446Y-30648631D01*
X35999500Y-30881902D01*
X35000500Y-30881902D01*
X35000500Y-27124500D01*
X35020185Y-27057461D01*
X35072989Y-27011706D01*
X35124500Y-27000500D01*
X133875500Y-27000500D01*
X133942539Y-27020185D01*
G37*
%TD.AperFunction*%
%TD*%
M02*
