M48
; DRILL file {KiCad 9.0.0} date 2025-03-03T21:56:56-0500
; FORMAT={-:-/ absolute / metric / decimal}
; #@! TF.CreationDate,2025-03-03T21:56:56-05:00
; #@! TF.GenerationSoftware,Kicad,Pcbnew,9.0.0
; #@! TF.FileFunction,Plated,1,2,PTH
FMAT,2
METRIC
; #@! TA.AperFunction,Plated,PTH,ViaDrill
T1C0.650
; #@! TA.AperFunction,Plated,PTH,ComponentDrill
T2C0.800
; #@! TA.AperFunction,Plated,PTH,ComponentDrill
T3C1.000
; #@! TA.AperFunction,Plated,PTH,ComponentDrill
T4C1.020
; #@! TA.AperFunction,Plated,PTH,ComponentDrill
T5C1.300
%
G90
G05
T1
X44.5Y-73.0
X44.5Y-85.0
X46.5Y-56.5
X53.0Y-63.8
X54.5Y-56.5
X59.4Y-63.8
X60.8Y-106.0
X64.0Y-63.8
X85.0Y-40.4
X85.0Y-47.6
X98.2Y-106.0
X108.6Y-46.4
X109.5Y-121.0
X118.2Y-46.4
X123.0Y-122.0
X127.8Y-46.4
T2
X62.11Y-45.185
X62.11Y-52.805
X64.65Y-45.185
X64.65Y-52.805
X67.19Y-45.185
X67.19Y-52.805
X69.73Y-45.185
X69.73Y-52.805
X72.27Y-45.185
X72.27Y-52.805
X74.81Y-45.185
X74.81Y-52.805
X77.35Y-45.185
X77.35Y-52.805
X79.89Y-45.185
X79.89Y-52.805
T3
X55.975Y-32.68
X55.975Y-35.22
X55.975Y-37.76
X55.975Y-40.3
X110.65Y-116.5
X123.0Y-116.5
T4
X68.47Y-72.92
X68.47Y-75.46
X68.47Y-78.0
X68.47Y-80.54
X68.47Y-83.08
X68.47Y-85.62
X68.47Y-88.16
X68.47Y-90.7
X68.47Y-93.24
X68.47Y-95.78
X68.47Y-98.32
X68.47Y-100.86
X68.47Y-103.4
X68.47Y-105.94
X68.47Y-108.48
X93.87Y-72.92
X93.87Y-75.46
X93.87Y-78.0
X93.87Y-80.54
X93.87Y-83.08
X93.87Y-85.62
X93.87Y-88.16
X93.87Y-90.7
X93.87Y-93.24
X93.87Y-95.78
X93.87Y-98.32
X93.87Y-100.86
X93.87Y-103.4
X93.87Y-105.94
X93.87Y-108.48
T5
X96.947Y-41.975
X102.027Y-41.975
M30
